<svg xmlns="http://www.w3.org/2000/svg" width="31.283" height="28.233" viewBox="0 0 31.283 28.233">
  <g id="Group_59" data-name="Group 59" transform="translate(-35 -479.647)">
    <path id="Path_171" data-name="Path 171" d="M56.346,507.88a1.072,1.072,0,0,1-.748-.3l-9.543-9.22a1.076,1.076,0,1,1,1.5-1.548l8.795,8.5,11.091-10.721a7.679,7.679,0,0,0-.029-10.607,6.173,6.173,0,0,0-4.465-1.832h-.02a8.288,8.288,0,0,0-5.78,2.494,1.148,1.148,0,0,1-.815.342h0a1.148,1.148,0,0,1-.815-.344c-1.964-1.878-3.694-2.84-5.121-2.84a7.048,7.048,0,0,0-5.142,2.179,7.511,7.511,0,0,0-2.018,3.879,1.076,1.076,0,0,1-2.111-.422,9.639,9.639,0,0,1,2.591-4.963,9.166,9.166,0,0,1,6.68-2.826c1.835,0,3.784.925,5.939,2.823a10.343,10.343,0,0,1,6.618-2.475,8.4,8.4,0,0,1,6,2.483,9.83,9.83,0,0,1,0,13.635l-11.86,11.466A1.075,1.075,0,0,1,56.346,507.88Zm.643-24.806.029.028Z" transform="translate(-5.418 0)" fill="#00c2ff"/>
    <path id="Path_172" data-name="Path 172" d="M51.287,552.177a1.087,1.087,0,0,1-.183-.016,1.075,1.075,0,0,1-.8-.626l-3.584-8.13-2.227,3.63a1.076,1.076,0,0,1-.917.514h-7.5a1.076,1.076,0,0,1,0-2.152h6.9l2.985-4.867a1.076,1.076,0,0,1,1.9.128l3.759,8.527,3.263-3.451a1.074,1.074,0,0,1,.782-.337h8.682a1.076,1.076,0,0,1,0,2.152H56.127l-4.058,4.291A1.076,1.076,0,0,1,51.287,552.177Z" transform="translate(0 -53.625)" fill="#00c2ff"/>
  </g>
</svg>
