<svg xmlns="http://www.w3.org/2000/svg" width="22.473" height="18.728" viewBox="0 0 22.473 18.728">
  <path id="Path_1255" data-name="Path 1255" d="M533.6,820.809h-4.682v-.937A1.875,1.875,0,0,0,527.046,818h-5.618a1.875,1.875,0,0,0-1.873,1.873v.937h-4.682A1.874,1.874,0,0,0,513,822.682v12.173a1.875,1.875,0,0,0,1.873,1.873H533.6a1.875,1.875,0,0,0,1.873-1.873V822.682A1.875,1.875,0,0,0,533.6,820.809Zm-12.173-.937h5.618v.937h-5.618Zm7.491,10.769a.468.468,0,0,1-.468.468h-2.341v2.341a.468.468,0,0,1-.468.468h-2.809a.468.468,0,0,1-.468-.468v-2.341h-2.341a.468.468,0,0,1-.468-.468v-2.809a.468.468,0,0,1,.468-.468h2.341v-2.341a.468.468,0,0,1,.468-.468h2.809a.468.468,0,0,1,.468.468v2.341h2.341a.468.468,0,0,1,.468.468Z" transform="translate(-513 -818)" fill="#757482"/>
</svg>
