<svg xmlns="http://www.w3.org/2000/svg" width="122" height="150.542" viewBox="0 0 122 150.542">
  <g id="Group_812" data-name="Group 812" transform="translate(-1)">
    <g id="Group_810" data-name="Group 810" transform="translate(12.476 0)">
      <g id="Group_808" data-name="Group 808" transform="translate(0 71.496)">
        <g id="Group_806" data-name="Group 806" transform="translate(81.791)">
          <path id="Path_1122" data-name="Path 1122" d="M306.539,238.872h0a3.439,3.439,0,0,0-3.439,3.439v34.214a3.438,3.438,0,0,0,3.439,3.439h0a3.439,3.439,0,0,0,3.439-3.439V242.311a3.439,3.439,0,0,0-3.439-3.439Zm2.238,10.14s-.331-5.978-1.073-7.6a2.473,2.473,0,0,0-1.4-1.267,2.284,2.284,0,0,1,2.476,2.6Z" transform="translate(-303.1 -238.872)" fill="#fff"/>
          <path id="Path_1123" data-name="Path 1123" d="M327.321,247.883a3.438,3.438,0,0,0-5.361,2.851v25.445a3.439,3.439,0,0,0,6.877,0V250.735A3.435,3.435,0,0,0,327.321,247.883Zm.28,9.7s-.332-5.978-1.074-7.6a2.473,2.473,0,0,0-1.4-1.267,2.285,2.285,0,0,1,2.476,2.6Z" transform="translate(-312.143 -242.911)" fill="#fff"/>
          <path id="Path_1124" data-name="Path 1124" d="M346.181,256.607a3.438,3.438,0,0,0-5.361,2.851v16.363a3.438,3.438,0,1,0,6.877,0V259.458A3.434,3.434,0,0,0,346.181,256.607Zm.371,9.6s-.331-5.978-1.074-7.6a2.469,2.469,0,0,0-1.4-1.267,2.284,2.284,0,0,1,2.476,2.6Z" transform="translate(-321.186 -247.094)" fill="#fff"/>
        </g>
        <g id="Group_807" data-name="Group 807">
          <path id="Path_1125" data-name="Path 1125" d="M187.127,238.872h0a3.439,3.439,0,0,1,3.439,3.439v34.214a3.438,3.438,0,0,1-3.439,3.439h0a3.439,3.439,0,0,1-3.439-3.439V242.311a3.439,3.439,0,0,1,3.439-3.439Zm-2.238,10.14s.331-5.978,1.073-7.6a2.473,2.473,0,0,1,1.4-1.267,2.284,2.284,0,0,0-2.476,2.6Z" transform="translate(-164.054 -238.872)" fill="#fff"/>
          <path id="Path_1126" data-name="Path 1126" d="M166.344,247.883a3.438,3.438,0,0,1,5.361,2.851v25.445a3.439,3.439,0,0,1-6.877,0V250.735A3.434,3.434,0,0,1,166.344,247.883Zm-.28,9.7s.331-5.978,1.074-7.6a2.471,2.471,0,0,1,1.4-1.267,2.285,2.285,0,0,0-2.476,2.6Z" transform="translate(-155.011 -242.911)" fill="#fff"/>
          <path id="Path_1127" data-name="Path 1127" d="M147.484,256.607a3.439,3.439,0,0,1,5.361,2.851v16.363a3.439,3.439,0,1,1-6.877,0V259.458A3.435,3.435,0,0,1,147.484,256.607Zm-.371,9.6s.331-5.978,1.074-7.6a2.469,2.469,0,0,1,1.4-1.267,2.284,2.284,0,0,0-2.476,2.6Z" transform="translate(-145.968 -247.094)" fill="#fff"/>
        </g>
      </g>
      <path id="Path_1128" data-name="Path 1128" d="M202.386,272.009V278.6h49.568v-6.594Zm46.849,2.319h-44.13v-.919h44.13Z" transform="translate(-173.019 -183.264)" fill="#fff"/>
      <path id="Path_1129" data-name="Path 1129" d="M216.472,297.908l-3.706-.539-1.657-3.357-1.657,3.357-3.706.539,2.681,2.614-.633,3.691,3.314-1.743,3.315,1.743-.633-3.691Zm-5.363-2.081.974,2.018-.974,1.266Zm.4,3.441,3.27-.774-1.764,1.519Zm22.639-1.361-3.706-.539-1.657-3.357-1.657,3.357-3.706.539,2.682,2.614-.633,3.691,3.315-1.743,3.314,1.743-.633-3.691Zm-5.363-2.081.973,2.018-.973,1.266Zm.4,3.441,3.27-.774-1.764,1.519Zm22.639-1.361-3.706-.539-1.657-3.357-1.657,3.357-3.706.539,2.681,2.614-.633,3.691,3.315-1.743,3.314,1.743-.633-3.691Zm-5.362-2.081.973,2.018-.973,1.266Zm.4,3.441,3.27-.774-1.764,1.519Z" transform="translate(-174.631 -193.814)" fill="#fff"/>
      <path id="Path_1130" data-name="Path 1130" d="M253.508,136.541c-.931-3.211-1.067-5.378-3.25-12.181s-8.22-13.76-8.9-15.243a6.7,6.7,0,0,0-3.507-3.891c-2.1-.95-7.676-3.677-8.476-3.707a5.264,5.264,0,0,0-2.8,1.165c-1.159.75-2.266.936-2.192,1.92s.605,5,1.261,5.88,3.237.7,3.237.7c.07,1.044,1.413,1.736,3.808,1.431s3.662-.522,3.662-.522c2.625,8.058-1.835,15.5.921,18.969,3.511,4.423,9.029,2.486,9.029,2.486s-1.123,2.154-6.883.437-10.857,2.547-10.857,2.547c3.155,1.883,3.6,4.169,3.6,4.169-4.716-6.805-15.768-4.122-15.768-4.122,4.245,2.83,4.823,5.318,4.823,5.318-2.087-3.1-6.4-5-6.4-5s-7.341-3.829-9.533-7.1c3.467,3.169,6.193,3.507,6.193,3.507s-1.9-4.512-.315-7.552,2.393-11.772-2.925-13.425c0,0-.081-6.244-7.664-5.972-4.995.179-10.618,2.244-13.749.407,0,0,2.081,5.582,4.643,5.565,0,0-1.891.436-2.354,0a3.6,3.6,0,0,0,1.879,2.7,4.854,4.854,0,0,1-.808,2.377c-.793,1.2-.364,1.948.119,2.351a14.2,14.2,0,0,1-1.123,2.33c-.632.993-.339,1.492.082,1.774a7.575,7.575,0,0,1,.972.864s-.269,1.037.168,1.305l.437.269a1.433,1.433,0,0,0-.042,1.1c.231.578.49.687.354,1.3s-1.059,2.338-.241,2.7c.554.246,2.114.025,3.324.324a2.893,2.893,0,0,1,.79.15,2.052,2.052,0,0,1,.6.751s.281,1.142-3.946,3.955h0c-.687.318-1.182.512-1.182.512a15.869,15.869,0,0,0-6.623,4.809s1.225-2.833,5.435-5.386c0,0-11.663-2.615-16.38,4.191,0,0,.447-2.286,3.6-4.169,0,0-5.1-4.265-10.856-2.547s-6.883-.437-6.883-.437,5.518,1.937,9.029-2.486c2.757-3.472-1.7-10.911.921-18.969,0,0,1.268.217,3.662.522s3.737-.387,3.808-1.431c0,0,2.581.18,3.237-.7s1.187-4.9,1.261-5.88-1.034-1.171-2.193-1.92a5.261,5.261,0,0,0-2.8-1.165c-.8.03-6.375,2.757-8.477,3.707a6.7,6.7,0,0,0-3.507,3.891c-.679,1.483-6.716,8.44-8.9,15.243s-2.319,8.971-3.25,12.181-.791,4.565,1.2,6,2.286.751,5.25,4.022,9.2,9.2,15.91,8.963c0,0-2.062-3.359-.765-6.015a8.392,8.392,0,0,0,2.842,6.612c3.223,2.915-.534,10.759,6.9,18.652,3.58,3.8,4.523,12.9,4.523,12.9h30.186s.944-9.106,4.523-12.9c7.438-7.893,3.682-15.737,6.9-18.652a8.392,8.392,0,0,0,2.842-6.612c1.3,2.656-.765,6.015-.765,6.015,6.708.238,12.945-5.693,15.91-8.963s3.254-2.582,5.249-4.022S254.439,139.752,253.508,136.541ZM188.7,164.313c5.982,2.818,10.611-5.064,10.611-5.064C194.886,169.7,188.7,164.313,188.7,164.313Zm17.088-5.064s4.629,7.882,10.611,5.064C216.4,164.313,210.206,169.7,205.785,159.249Z" transform="translate(-148.395 -101.517)" fill="#fff"/>
      <g id="Group_809" data-name="Group 809" transform="translate(5.153 9.168)">
        <path id="Path_1131" data-name="Path 1131" d="M334.939,186.456h0q-.161.141-.34.31l-.023.022c-.117.11-.239.23-.37.361l-.012.012c-.126.128-.262.268-.4.418l-.089.094c-.145.154-.295.315-.457.495-.329.363-.675.733-1.033,1.1l-.026.027q-.541.56-1.123,1.121a44.3,44.3,0,0,1-2.283,26.412h0a4.824,4.824,0,0,1,.653.062l.071.015a4.971,4.971,0,0,1,.527.125c.054.016.107.034.16.052q.22.074.433.17c.053.024.107.046.159.072a4.52,4.52,0,0,1,.536.307h0a4.765,4.765,0,0,1,.878.765c.1.108.182.223.268.338.029.039.062.073.09.112.049.071.09.147.135.221.055.089.115.175.164.268a49.216,49.216,0,0,0,2.086-32.882Z" transform="translate(-238.774 -151.411)" fill="#fff"/>
        <path id="Path_1132" data-name="Path 1132" d="M160.469,189.351l-.014-.014c-.369-.381-.724-.76-1.062-1.134-.155-.171-.3-.326-.438-.474l-.1-.105c-.272-.287-.515-.532-.734-.742l-.069-.066c-.108-.1-.212-.2-.309-.284a49.23,49.23,0,0,0,2.074,32.788l0,0a4.714,4.714,0,0,1,.644-.9c.015-.017.033-.031.048-.048a4.377,4.377,0,0,1,.785-.678l.022-.017a4.636,4.636,0,0,1,.55-.313c.049-.024.1-.045.149-.067a4.822,4.822,0,0,1,.471-.182c.042-.014.083-.028.125-.04a4.83,4.83,0,0,1,1.3-.2h0a44.309,44.309,0,0,1-2.293-26.369Q161.025,189.926,160.469,189.351Z" transform="translate(-155.867 -151.448)" fill="#fff"/>
        <path id="Path_1133" data-name="Path 1133" d="M186.71,133.124l.059.445c.034.248.067.493.1.736l.017.134q.042.319.079.631l.016.129c.089.751.155,1.474.175,2.164v.036q.009.344,0,.677v0a9.291,9.291,0,0,1-.12,1.321h0a44.321,44.321,0,0,1,18.908-12.172,4.707,4.707,0,0,1,.259-.445,3.716,3.716,0,0,0,.466-1.007,5.117,5.117,0,0,1-1.743-3.187v0A48.969,48.969,0,0,0,186.7,133.07Z" transform="translate(-170.652 -120.786)" fill="#fff"/>
        <path id="Path_1134" data-name="Path 1134" d="M263.093,119.841a6.753,6.753,0,0,1,3.354,3.663,9.8,9.8,0,0,1,.4,1.188A44.246,44.246,0,0,1,288.8,137.668h0c-.033-.206-.057-.417-.075-.631,0-.016,0-.032,0-.047-.015-.189-.024-.382-.029-.576,0-.043,0-.086,0-.129,0-.179,0-.36,0-.543,0-.038,0-.076,0-.115.015-.445.048-.9.1-1.373,0-.039.008-.078.012-.117q.03-.291.065-.589l.022-.185q.034-.282.072-.569c.007-.055.014-.11.021-.166q.047-.354.1-.715c.013-.093.025-.187.037-.281s.024-.176.035-.265a48.841,48.841,0,0,0-26.222-12.237C263,119.388,263.056,119.631,263.093,119.841Z" transform="translate(-207.202 -119.13)" fill="#fff"/>
      </g>
    </g>
    <g id="Group_811" data-name="Group 811" transform="translate(0 116.695)">
      <text id="MY_FITNESS" data-name="MY FITNESS" transform="translate(62 19)" fill="#fff" font-size="20" font-family="Montserrat-SemiBold, Montserrat" font-weight="600"><tspan x="-60.61" y="0">MY FITNESS</tspan></text>
      <text id="BUILD_YOUR_BODY" data-name="BUILD YOUR BODY" transform="translate(51.685 31.847)" fill="#fff" font-size="7" font-family="Montserrat-SemiBold, Montserrat" font-weight="600"><tspan x="-33.166" y="0">BUILD YOUR BODY</tspan></text>
    </g>
  </g>
</svg>
