<svg id="Group_856" data-name="Group 856" xmlns="http://www.w3.org/2000/svg" width="207.253" height="149.485" viewBox="0 0 207.253 149.485">
  <path id="Path_1229" data-name="Path 1229" d="M1334.988,1073.38h7.454v-10.844h5.859l7.261,10.844h8.714l-8.278-12.1a10.524,10.524,0,0,0,7.262-10.505v-.1a10.637,10.637,0,0,0-2.905-7.746c-2.227-2.227-5.567-3.436-9.875-3.436h-15.492v33.887Zm7.454-17.427v-9.731h7.407c3.632,0,5.859,1.645,5.859,4.841v.1c0,2.857-2.083,4.794-5.713,4.794Zm37.327,17.961c9.1,0,14.862-5.036,14.862-15.3v-19.122h-7.454V1058.9c0,5.375-2.76,8.134-7.312,8.134s-7.31-2.856-7.31-8.376v-19.17H1365.1v19.364c0,9.973,5.567,15.057,14.669,15.057Zm18.105-.534h7.359v-21.543l16.412,21.543h6.341v-33.887h-7.358v20.865l-15.88-20.865h-6.875v33.887Z" transform="translate(-1334.988 -924.477)" fill="#fff"/>
  <path id="Path_1230" data-name="Path 1230" d="M1958.548,1070.211h7.359v-21.543l16.411,21.543h6.343v-33.887H1981.3v20.865l-15.878-20.865h-6.875v33.887Zm34.227,0h7.456v-33.887h-7.456v33.887Zm11.57,0h7.36v-21.543l16.412,21.543h6.342v-33.887H2027.1v20.865l-15.88-20.865h-6.875v33.887Zm50.205.582a22,22,0,0,0,14.475-5.374V1050.7h-14.717v6.439h7.5v4.84a11.9,11.9,0,0,1-7.021,2.035c-6,0-10.264-4.552-10.264-10.747v-.1c0-5.761,4.311-10.554,9.731-10.554a12.479,12.479,0,0,1,8.86,3.438l4.7-5.665c-3.536-3-7.214-4.648-13.315-4.648a17.4,17.4,0,0,0-17.767,17.526v.1c0,10.021,7.262,17.429,17.817,17.429Z" transform="translate(-1861.773 -921.309)" fill="#fff"/>
  <path id="Path_1231" data-name="Path 1231" d="M1422.038,982.469v3.308h6.826v-3.308Z" transform="translate(-1408.528 -876.304)" fill="#fff"/>
  <path id="Path_1232" data-name="Path 1232" d="M2546.184,982.469v3.308h-6.826v-3.308Z" transform="translate(-2352.442 -876.304)" fill="#fff"/>
  <path id="Path_1233" data-name="Path 1233" d="M2595.278,982.469v3.308h-5.12v-3.308Z" transform="translate(-2395.358 -876.304)" fill="#fff"/>
  <path id="Path_1234" data-name="Path 1234" d="M1472.838,982.469v3.308h164.467v-3.308Z" transform="translate(-1451.444 -876.304)" fill="#fff"/>
  <path id="Path_1235" data-name="Path 1235" d="M1751.77,390.04c-.271-.491-1.091,0-1.637-.382s-2.513-.655-3.058-.928-.656-.437-.819-.055-2.486-1.7-3.961-3.615-1.508-3.973-3.722-8c-2.3-4.007-7.857-5.607-9.33-8.173s-.47-6.732-1.66-9.245c-2.132-5.328-4.166-4.674-4.3-5.666-.045-.332-.088-.538-.114-.68-1.657,1.857-6.006,3.2-9.551,4.027.464,1.541.958,5.776,3.992,9.189,0,0,4.716,3.783,5.449,4.681a6.108,6.108,0,0,1,.776,1.174,9.122,9.122,0,0,0,3.378,3.619c1.367.724,2.815,3.378,4.906,5.389s6.38,5.713,7.745,7.351a39.3,39.3,0,0,1,3.113,4.041c.219.491-.438.382-.056,1.583s1.311,4.533,1.585,5.515-.437,3.44-.492,4.041.655,1.693,1.529,1.31,2.676-3.058,3.278-5.406a41.007,41.007,0,0,1,2.184-5.733c.655-1.638,1.036-3.549.763-4.041Zm-15.934-60.09c.343-.688-1.434-2.821-4.392-5.436a55.58,55.58,0,0,0-6.625-4.954c-.081-.055-.158-.11-.234-.165-1.619-1.166-1.758-3.187-3.666-4.239-1.994-1.1-4.889-.345-5.3-.688s-.894-3.028-.756-3.922,2.5-4.719,1.845-8.388-4.521-4.439-8.252-3.2c-2.221.735-5.4.905-5.571,2.472-.067.595,1.2,1.987,1.021,2.516-.568,1.651-.631,2.446-.465,3s.306,1.08-.026,1.5-1.1,1.729-.739,2.007,1.167.129,1.029.434-.714.4-.41.876a.8.8,0,0,0,.732.414s-.709.749-.183,1.082.171.352.5,1.073a1.365,1.365,0,0,0,1.752.675c.666-.222,2.19-1.157,2.55-.271a7.851,7.851,0,0,1,.526,2.161c0,.249-.9.505-1.833.765s-4.875-.29-5.572,4.178c-.7,3.83.581,3.556-.812,5.615-.677,1.091-.692,3.3-.7,4.854-.082-.807-1.246-2.431-1.974-4.352a13.457,13.457,0,0,1-1.193-4.726,24.131,24.131,0,0,1,.518-3.116,14.567,14.567,0,0,1,.321-2.171c.31-.727.935-1.3.727-1.766s-1.454-.156-1.87.883-.528,2.016-.736,1.5a5.461,5.461,0,0,1-.675-1.921,25.1,25.1,0,0,0-.571-3.532c-.259-.571-1.124-.863-.973.314s.451,3.158.451,3.158.009,1.036-.447.173c-.278-.685-1.183-3.309-1.461-3.823s-1.071-.407-.879.514,1.043,3.187,1.15,3.615.152,1.136-.147.366-1.217-3.7-1.816-3.274.192,2.076.321,2.462.99,2.6.605,2.064-1.29-2.256-1.762-1.764.472,1.648.813,2.162,1.115,2.59,1.585,3.51,1.755,1.888,1.991,3a58.467,58.467,0,0,0,2.414,9.1c1.165,2.691,1.862,4.615,2.634,4.538a4.4,4.4,0,0,0,3.16-1.388c.925-1.156,3.1-6.222,3.329-6.762.328,1.491,1.724,6.147,2.263,8.922a14.722,14.722,0,0,1,.25,3.779c3.627-1.425,7.423-2.414,11.153-1.777a46.276,46.276,0,0,1,1.656-12.578c.989-3.491.261-4.962.261-4.962,1.22.759,1.6,1.769,2.317,2.487a7.048,7.048,0,0,0,1.875,1.451c1.74.87,3.329.888,3.475,1.516s-1.847,4.376-2.814,6.261a40.854,40.854,0,0,1-2.842,4.256,34.41,34.41,0,0,1-3.174,3.262c-.095.095-.2.192-.314.291l-.242.223c-.588.624-1.121,2.051-1.831,2.46-.776.448-1.671.836-1.313,1.164s1.433.09,1.85-.209,1.164-.866,1.164-.866a5.022,5.022,0,0,1-.715,2.149c-.718,1.314-1.284,3.1-.927,3.224s1.374-1.462,1.822-2.477,1.254-1.433.747-.388-1.762,3.91-1.2,4.179,1.613-2.388,1.971-3.194.447-.925.447-.269-1.522,3.283-.805,3.433.866-.478,1.313-1.284a6.682,6.682,0,0,0,.5-1.095,4.23,4.23,0,0,0,.25-1.233,3.151,3.151,0,0,1-.282,1.851c-.373.74-.4.806-.164.985s1.078-.747,1.258-1.523c.037-.164.076-.3.114-.424.027-.3.061-.591.111-.86.2-1.058.634-4.216,1.048-5.454s5.886-5.737,7.607-8.558,2.89-5.161,3.234-5.849Zm-41.253,19.163a35.577,35.577,0,0,0-7.723,5.38c-1.394,1.066-1.353,4.236-.34,7.037s2.772,7.121,4.973,12.352,3.682,8.677,3.05,9.65c-.767.023-.448.774-.742,1.334a35.163,35.163,0,0,1-2.367,4.114,9.556,9.556,0,0,1-3.469,2.861c-1.388.889-1.6,1.262-1.52,2.225s2.162,1.5,5.143.423,5.289-2.521,7.169-3.188,4.954-1.856,5.44-3.207-.649-.813-1.024-1.744a8.223,8.223,0,0,0-1.533-2.884c-.891-.97-.844-.891-1-.8a8.341,8.341,0,0,1-1.782-2.963c-.444-1.243-.839-3.693-1.292-5.817s.9-6.749-1.269-11.073c-1.035-2.164-3.728-3.209-2.843-3.611s6.733.637,10.513.154a31.565,31.565,0,0,0,5.247-1.247c.227-3.6-1.384-10.883-4.316-12.022-3.129.641-7.6,1.64-10.313,3.022Z" transform="translate(-1631.341 -298.407)" fill="#fff"/>
  <path id="Path_1236" data-name="Path 1236" d="M1966.986,402.176c-.267-.482-1.069,0-1.6-.375s-2.461-.642-3-.91-.642-.428-.8-.054-2.437-1.67-3.882-3.543-1.479-3.894-3.649-7.838c-2.258-3.927-7.7-5.5-9.146-8.011s-.461-6.6-1.627-9.061c-2.09-5.222-4.082-4.581-4.212-5.553-.043-.326-.087-.527-.11-.666-1.625,1.82-5.887,3.135-9.362,3.947.455,1.51.939,5.661,3.912,9.006,0,0,4.622,3.708,5.34,4.588a5.922,5.922,0,0,1,.76,1.151,8.935,8.935,0,0,0,3.312,3.547c1.339.709,2.759,3.311,4.808,5.282s6.253,5.6,7.591,7.205a38.428,38.428,0,0,1,3.049,3.96c.215.482-.428.374-.052,1.552s1.285,4.442,1.552,5.405-.429,3.372-.481,3.96.641,1.659,1.5,1.284,2.623-3,3.211-5.3a40.106,40.106,0,0,1,2.142-5.619c.641-1.606,1.016-3.479.748-3.96ZM1950.3,343.282c.338-.674-.337-2.765-3.237-5.328a54.221,54.221,0,0,0-6.494-4.856l-.228-.161c-1.588-1.143-1.724-3.123-3.593-4.155-1.956-1.079-4.793-.338-5.2-.675s-.877-2.968-.742-3.844,2.455-4.625,1.808-8.221-5.122-4.244-8.088-3.14c-5.7,2.123-5.078,7.286-4.915,7.829s.3,1.059-.027,1.466-1.077,1.7-.724,1.967,1.143.127,1.007.425-.7.4-.4.858a.784.784,0,0,0,.718.405s-.7.734-.178,1.061.166.345.492,1.051a1.338,1.338,0,0,0,1.718.661c.652-.217,2.146-1.134,2.5-.266a7.727,7.727,0,0,1,.515,2.118c0,.244-.88.5-1.8.75s-4.777-.284-5.46,4.1c-.683,3.754.569,3.485-.8,5.5-.661,1.069-.677,3.237-.686,4.757-.079-.791-1.222-2.382-1.934-4.266a13.184,13.184,0,0,1-1.17-4.632,23.49,23.49,0,0,1,.509-3.054,14.173,14.173,0,0,1,.313-2.128c.3-.712.916-1.272.712-1.731s-1.426-.152-1.833.865-.517,1.976-.72,1.466a5.308,5.308,0,0,1-.663-1.883,24.752,24.752,0,0,0-.558-3.462c-.255-.56-1.1-.846-.955.307s.444,3.1.444,3.1.008,1.015-.439.17c-.273-.671-1.16-3.244-1.433-3.747s-1.047-.4-.86.5,1.021,3.123,1.127,3.543.149,1.114-.144.358-1.192-3.629-1.78-3.209.189,2.035.315,2.413.97,2.547.593,2.022-1.264-2.211-1.726-1.729.462,1.616.8,2.119,1.091,2.538,1.552,3.44,1.721,1.851,1.952,2.942a57.193,57.193,0,0,0,2.365,8.919c1.142,2.637,1.825,4.523,2.581,4.447a4.312,4.312,0,0,0,3.1-1.36,52.731,52.731,0,0,0,3.262-6.627c.321,1.461,1.688,6.025,2.218,8.745a14.372,14.372,0,0,1,.244,3.7c3.556-1.4,7.277-2.366,10.931-1.741a45.356,45.356,0,0,1,1.624-12.328c.968-3.421.256-4.863.256-4.863,1.195.744,1.569,1.734,2.271,2.437a6.922,6.922,0,0,0,1.838,1.422c1.705.853,3.264.87,3.406,1.486s-1.81,4.289-2.758,6.136a40.488,40.488,0,0,1-2.786,4.172,33.392,33.392,0,0,1-3.112,3.2c-.091.093-.192.188-.306.285-.1.091-.178.165-.237.218-.575.612-1.1,2.01-1.8,2.411-.759.439-1.637.819-1.287,1.141s1.405.088,1.814-.2,1.141-.848,1.141-.848a4.919,4.919,0,0,1-.7,2.106c-.7,1.288-1.259,3.043-.908,3.16s1.346-1.433,1.785-2.428,1.229-1.4.732-.381-1.727,3.833-1.172,4.1,1.58-2.34,1.93-3.13.439-.907.439-.263-1.491,3.218-.79,3.364.849-.468,1.288-1.258a6.515,6.515,0,0,0,.485-1.073,4.107,4.107,0,0,0,.245-1.209,3.085,3.085,0,0,1-.276,1.814c-.366.725-.4.79-.163.966s1.059-.732,1.234-1.493c.037-.161.076-.3.112-.415.028-.29.061-.579.11-.842.194-1.037.62-4.132,1.026-5.346s4.7-5.622,6.389-8.387,2.833-5.058,3.169-5.733Zm-39.365,18.782a34.929,34.929,0,0,0-7.569,5.272c-1.366,1.045-1.327,4.152-.332,6.9s2.716,6.98,4.873,12.107,3.607,8.5,2.988,9.458c-.75.023-.439.758-.726,1.308a34.267,34.267,0,0,1-2.32,4.032,9.367,9.367,0,0,1-3.4,2.8c-1.36.872-1.572,1.237-1.488,2.181s2.119,1.472,5.04.414,5.185-2.471,7.025-3.125,4.858-1.819,5.333-3.143-.634-.8-1-1.709a8.055,8.055,0,0,0-1.5-2.826c-.872-.951-.826-.873-.981-.782a8.158,8.158,0,0,1-1.748-2.9c-.433-1.218-.823-3.619-1.265-5.7s.886-6.615-1.245-10.853c-1.015-2.121-3.653-3.145-2.786-3.539s6.6.624,10.3.151a30.925,30.925,0,0,0,5.145-1.222c.222-3.527-1.356-10.667-4.231-11.782-3.065.629-7.443,1.608-10.108,2.962Z" transform="translate(-1814.264 -310.239)" fill="#fff"/>
  <path id="Path_1237" data-name="Path 1237" d="M2144.042,431.676l13.122-.859-12.209-.8c-.262.491-.568,1.05-.912,1.659Zm-9.989-16.45,22.488-.9-24.6-.99a4.064,4.064,0,0,1,.425.2,4.655,4.655,0,0,1,1.69,1.693Zm17.843,20.08-9.631-.7c-.326.469-.7.967-1.1,1.476l10.731-.778Zm-1.5-17.336-15.172-.962a4.133,4.133,0,0,0,.739.692l.228.162c.446.307.9.606,1.367.923l12.839-.814Zm-13.727,35.474,8.063-.8-10.056-1c0,.02.006.039.009.06.081.606.883.587,1.984,1.745Zm2.809,6.142c.068.64.1,1.313.132,1.989l10.786-.989-10.918-1Zm6.065-33.48a4.828,4.828,0,0,1,.415,1.033l6.917-.5-7.331-.531Z" transform="translate(-2008.253 -395.496)" fill="#fff"/>
</svg>
