<svg id="Group_1001" data-name="Group 1001" xmlns="http://www.w3.org/2000/svg" width="188.4" height="149.485" viewBox="0 0 188.4 149.485">
  <g id="Group_999" data-name="Group 999" transform="translate(0 113.306)">
    <path id="Path_1334" data-name="Path 1334" d="M925.5,200.127a4.962,4.962,0,0,1,1.111,3.217,5.083,5.083,0,0,1-1.718,4.055,7.4,7.4,0,0,1-4.979,1.486H911.17V188.511h8.571a7.329,7.329,0,0,1,4.747,1.356,4.647,4.647,0,0,1,1.66,3.809,4.747,4.747,0,0,1-1,3.117,4.63,4.63,0,0,1-2.611,1.587A4.956,4.956,0,0,1,925.5,200.127Zm-10.26-3.074H918.9a3.494,3.494,0,0,0,2.324-.678,2.423,2.423,0,0,0,.793-1.948,2.487,2.487,0,0,0-.78-1.963,3.523,3.523,0,0,0-2.394-.692h-3.607Zm6.349,7.807a2.51,2.51,0,0,0,.866-2.064,2.574,2.574,0,0,0-.881-2.092,3.787,3.787,0,0,0-2.5-.736h-3.837v5.6h3.867A3.833,3.833,0,0,0,921.588,204.86Z" transform="translate(-911.17 -188.511)" fill="#fff"/>
    <path id="Path_1335" data-name="Path 1335" d="M943.076,208.886l-4.762-7.936h-1.789v7.936h-4.069V188.511h7.763a7.663,7.663,0,0,1,5.412,1.733,6.493,6.493,0,0,1,.577,8.426,6.34,6.34,0,0,1-3.709,2.078l5.079,8.138Zm-6.551-10.736h3.348q3.491,0,3.492-3.088a3.045,3.045,0,0,0-.851-2.294,3.685,3.685,0,0,0-2.641-.823h-3.348Z" transform="translate(-911.273 -188.511)" fill="#fff"/>
    <path id="Path_1336" data-name="Path 1336" d="M965.622,204.789h-8.167l-1.443,4.1h-4.3l7.5-20.144h4.646l7.476,20.144h-4.3Zm-1.1-3.088-3-8.6-3,8.6Z" transform="translate(-911.367 -188.512)" fill="#fff"/>
    <path id="Path_1337" data-name="Path 1337" d="M993.793,208.886h-4.069l-9.12-13.853v13.853h-4.069V188.511H980.6l9.12,13.968V188.511h4.069Z" transform="translate(-911.487 -188.511)" fill="#fff"/>
    <path id="Path_1338" data-name="Path 1338" d="M1017.141,204.009a8.839,8.839,0,0,1-3.679,3.594,12.028,12.028,0,0,1-5.729,1.284h-7.243V188.511h7.243a12.252,12.252,0,0,1,5.729,1.256,8.687,8.687,0,0,1,3.679,3.55,11.889,11.889,0,0,1,0,10.692Zm-4.661-.491a7.455,7.455,0,0,0,0-9.726,7.057,7.057,0,0,0-5.093-1.732h-2.828v13.19h2.828A7.053,7.053,0,0,0,1012.48,203.518Z" transform="translate(-911.603 -188.511)" fill="#fff"/>
  </g>
  <path id="Path_1339" data-name="Path 1339" d="M968.249,74.653s52.539,19.834,51.424,48.537h.017v48.537s-52.538-19.834-51.423-48.537h-.018Z" transform="translate(-911.447 -74.653)" fill="#fff"/>
  <g id="Group_1000" data-name="Group 1000" transform="translate(115.147 11.25)">
    <path id="Path_1340" data-name="Path 1340" d="M1066.954,160.653a71.874,71.874,0,0,1,33.372-12.3v-15.2a68.469,68.469,0,0,0-33.372,27.5Z" transform="translate(-1027.072 -86.187)" fill="#fff"/>
    <path id="Path_1341" data-name="Path 1341" d="M1060.791,165a71.379,71.379,0,0,1,39.34-35.261V85.958s-74.816,28.245-73.228,69.117h-.025v69.117s3.339-1.262,8.579-3.63c-.019-2.217.053-4.446.237-6.683A71.816,71.816,0,0,1,1060.791,165Z" transform="translate(-1026.878 -85.958)" fill="#fff"/>
    <path id="Path_1342" data-name="Path 1342" d="M1053.747,191.117a71.753,71.753,0,0,1,2.614-14.15,66.708,66.708,0,0,0-15.643,37.762c-.108,1.318-.166,2.631-.2,3.943,4.25-2.047,9.194-4.591,14.39-7.585A71.383,71.383,0,0,1,1053.747,191.117Z" transform="translate(-1026.944 -86.399)" fill="#fff"/>
    <path id="Path_1343" data-name="Path 1343" d="M1056.8,191.249a68.407,68.407,0,0,0,.922,18.118c20.443-12.228,43.416-31.123,42.529-53.964h.025v-1.946a67.1,67.1,0,0,0-38.893,18.163A68.334,68.334,0,0,0,1056.8,191.249Z" transform="translate(-1027.022 -86.285)" fill="#fff"/>
  </g>
</svg>
