<svg id="Group_1003" data-name="Group 1003" xmlns="http://www.w3.org/2000/svg" width="204.628" height="145.904" viewBox="0 0 204.628 145.904">
  <rect id="Rectangle_349" data-name="Rectangle 349" width="27.728" height="27.728" rx="13.864" transform="translate(28.096 44.545)" fill="#fff"/>
  <path id="Path_1344" data-name="Path 1344" d="M538.774,589.984a40.236,40.236,0,0,0-40.119-40.118h0a40.236,40.236,0,0,0-40.119,40.118h0v58.625s80.231-8.932,80.237-58.618v-.006Z" transform="translate(-394.513 -549.866)" fill="#fff"/>
  <path id="Path_1345" data-name="Path 1345" d="M388.461,675.15v.006h0a27.993,27.993,0,0,0,27.912,27.911h0a27.993,27.993,0,0,0,27.911-27.911h0V634.37S388.468,640.584,388.461,675.15Zm27.912,7.341a7.335,7.335,0,1,1,7.335-7.335A7.356,7.356,0,0,1,416.373,682.492Z" transform="translate(-388.461 -557.163)" fill="#fff"/>
  <g id="Group_1002" data-name="Group 1002" transform="translate(64.502 110.94)">
    <path id="Path_1346" data-name="Path 1346" d="M463.817,688.85a8.932,8.932,0,0,1-3.492-3.349,9.784,9.784,0,0,1,.012-9.646,9.035,9.035,0,0,1,3.507-3.35,10.285,10.285,0,0,1,4.993-1.212,10.421,10.421,0,0,1,4.092.782,8.352,8.352,0,0,1,3.128,2.268l-2.19,2.059a6.388,6.388,0,0,0-4.875-2.138,6.836,6.836,0,0,0-3.362.821,5.916,5.916,0,0,0-2.321,2.281,6.986,6.986,0,0,0,0,6.621,5.917,5.917,0,0,0,2.321,2.282,6.835,6.835,0,0,0,3.362.82,6.35,6.35,0,0,0,4.875-2.164l2.19,2.086a8.337,8.337,0,0,1-3.141,2.268,10.506,10.506,0,0,1-4.106.782A10.275,10.275,0,0,1,463.817,688.85Z" transform="translate(-459.06 -671.292)" fill="#fff"/>
    <path id="Path_1347" data-name="Path 1347" d="M484.173,688.85a8.971,8.971,0,0,1-3.518-3.362,9.691,9.691,0,0,1,0-9.621,8.974,8.974,0,0,1,3.518-3.363,11.046,11.046,0,0,1,10.063,0,9.008,9.008,0,0,1,3.519,3.35,9.739,9.739,0,0,1,0,9.646,9,9,0,0,1-3.519,3.349,11.046,11.046,0,0,1-10.063,0Zm8.317-2.58a5.948,5.948,0,0,0,2.294-2.3,6.935,6.935,0,0,0,0-6.6,5.953,5.953,0,0,0-2.294-2.294,6.98,6.98,0,0,0-6.57,0,5.941,5.941,0,0,0-2.294,2.294,6.943,6.943,0,0,0,0,6.6,5.936,5.936,0,0,0,2.294,2.3,6.986,6.986,0,0,0,6.57,0Z" transform="translate(-460.814 -671.292)" fill="#fff"/>
    <path id="Path_1348" data-name="Path 1348" d="M521.592,689.827l-.026-12.1-6,10.011h-1.513l-6-9.854v11.94h-3.233V671.578h2.79l7.247,12.1,7.117-12.1h2.79l.026,18.249Z" transform="translate(-463.012 -671.317)" fill="#fff"/>
    <path id="Path_1349" data-name="Path 1349" d="M543.719,672.36a6.006,6.006,0,0,1,2.7,2.242,6.85,6.85,0,0,1,0,6.921,5.976,5.976,0,0,1-2.7,2.256,10.118,10.118,0,0,1-4.132.782h-4.12v5.266h-3.389V671.578h7.508A10.1,10.1,0,0,1,543.719,672.36Zm-.925,8.395a3.718,3.718,0,0,0,0-5.37,5.209,5.209,0,0,0-3.364-.938h-3.963v7.247h3.963A5.208,5.208,0,0,0,542.793,680.755Z" transform="translate(-465.366 -671.317)" fill="#fff"/>
    <path id="Path_1350" data-name="Path 1350" d="M563.1,685.6h-9.124l-1.8,4.224h-3.494l8.212-18.249h3.338l8.238,18.249h-3.546Zm-1.12-2.659-3.442-7.978-3.414,7.978Z" transform="translate(-466.8 -671.317)" fill="#fff"/>
    <path id="Path_1351" data-name="Path 1351" d="M589.1,671.578v18.249h-2.788l-10.064-12.358v12.358h-3.363V671.578h2.789l10.063,12.357V671.578Z" transform="translate(-468.889 -671.317)" fill="#fff"/>
    <path id="Path_1352" data-name="Path 1352" d="M603.614,683.388v6.439h-3.389V683.44l-7.169-11.862h3.623l5.345,8.89,5.4-8.89h3.337Z" transform="translate(-470.632 -671.317)" fill="#fff"/>
  </g>
</svg>
