<svg xmlns="http://www.w3.org/2000/svg" xmlns:xlink="http://www.w3.org/1999/xlink" width="614.333" height="576.869" viewBox="0 0 614.333 576.869">
  <defs>
    <clipPath id="clip-path">
      <path id="SVGID" d="M6.263,0H175.212a8.975,8.975,0,0,1,8.975,8.975V124.383a8.975,8.975,0,0,1-8.975,8.975H6.32A6.32,6.32,0,0,1,0,127.037V6.263A6.263,6.263,0,0,1,6.263,0Z"/>
    </clipPath>
  </defs>
  <g id="Group_912" data-name="Group 912" transform="translate(-476.716 -113.716)">
    <path id="Path_332" data-name="Path 332" d="M806.267,902.384c0,10.253-73.772,18.566-164.776,18.566s-164.776-8.313-164.776-18.566,73.772-18.569,164.776-18.569S806.267,892.128,806.267,902.384Z" transform="translate(0 -257.692)" fill="#e8e8e9"/>
    <path id="Path_333" data-name="Path 333" d="M1339.7,893.718c0,3.3-23.726,5.971-52.992,5.971s-52.992-2.674-52.992-5.971,23.725-5.972,52.992-5.972S1339.7,890.419,1339.7,893.718Z" transform="translate(-253.308 -259.007)" fill="#e8e8e9"/>
    <path id="Path_334" data-name="Path 334" d="M1249.7,962.718c0,3.3-23.725,5.971-52.992,5.971s-52.992-2.673-52.992-5.971,23.726-5.972,52.992-5.972S1249.7,959.419,1249.7,962.718Z" transform="translate(-223.192 -282.096)" fill="#e8e8e9"/>
    <path id="Path_335" data-name="Path 335" d="M734.7,968.718c0,3.3-23.725,5.971-52.992,5.971s-52.992-2.674-52.992-5.971,23.725-5.972,52.992-5.972S734.7,965.419,734.7,968.718Z" transform="translate(-50.862 -284.104)" fill="#e8e8e9"/>
    <rect id="Rectangle_204" data-name="Rectangle 204" width="95.024" height="112.761" transform="translate(505.516 132.579)" fill="#fce2c9" opacity="0.57"/>
    <rect id="Rectangle_205" data-name="Rectangle 205" width="95.024" height="112.761" transform="translate(616.377 216.833)" fill="#b2b2b0" opacity="0.1"/>
    <rect id="Rectangle_206" data-name="Rectangle 206" width="112.761" height="95.024" transform="translate(848.235 128.144)" fill="#fce2c9" opacity="0.57"/>
    <rect id="Rectangle_207" data-name="Rectangle 207" width="112.761" height="95.024" transform="translate(934.39 258.01)" fill="#b2b2b0" opacity="0.1"/>
    <rect id="Rectangle_208" data-name="Rectangle 208" width="69.051" height="58.188" transform="translate(519.453 286.61)" fill="#b2b2b0" opacity="0.2"/>
    <rect id="Rectangle_209" data-name="Rectangle 209" width="69.051" height="58.188" transform="translate(739.908 201.089)" fill="#b2b2b0" opacity="0.1"/>
    <rect id="Rectangle_210" data-name="Rectangle 210" width="69.051" height="58.188" transform="translate(910.317 337.923)" fill="#b2b2b0" opacity="0.2"/>
    <rect id="Rectangle_211" data-name="Rectangle 211" width="44.994" height="37.917" transform="translate(1024.337 149.776)" fill="#b2b2b0" opacity="0.2"/>
    <rect id="Rectangle_212" data-name="Rectangle 212" width="44.994" height="37.917" transform="translate(677.184 116.201)" fill="#b2b2b0" opacity="0.2"/>
    <rect id="Rectangle_213" data-name="Rectangle 213" width="44.994" height="37.917" transform="translate(810.259 360.395)" fill="#fce2c9" opacity="0.57"/>
    <g id="Group_140" data-name="Group 140" transform="translate(569.251 174.483)">
      <g id="Group_137" data-name="Group 137" transform="translate(0)">
        <g id="Group_136" data-name="Group 136">
          <rect id="Rectangle_214" data-name="Rectangle 214" width="117.341" height="194.925" fill="#cecece"/>
          <rect id="Rectangle_215" data-name="Rectangle 215" width="100.827" height="177.187" transform="translate(8.258 8.869)" fill="#fff"/>
          <rect id="Rectangle_216" data-name="Rectangle 216" width="90.057" height="165.784" transform="translate(13.642 14.57)" fill="#f8b134"/>
          <path id="Path_336" data-name="Path 336" d="M726.348,348.156c-10.5,5.942-21.757,11.978-33.892,11.274-16.471-1.267-19.638-17.317-25.973-29.987-6.125-11.824-17.1-17.1-29.986-13.3-.068.021-.138.055-.206.077V422.166h90.057Z" transform="translate(-622.648 -241.811)" fill="#f29100"/>
        </g>
        <path id="Path_337" data-name="Path 337" d="M636.291,276.231l49.289-49.29h40.768v31.5L636.291,348.5Zm90.057,14.794-90.057,90.058v11.643h26.128l63.929-63.93Z" transform="translate(-622.648 -212.371)" fill="#fff" opacity="0.3"/>
      </g>
      <g id="Group_139" data-name="Group 139" transform="translate(154.555 67.81)">
        <g id="Group_138" data-name="Group 138">
          <rect id="Rectangle_217" data-name="Rectangle 217" width="123.318" height="97.462" fill="#cecece"/>
          <rect id="Rectangle_218" data-name="Rectangle 218" width="110.648" height="85.109" transform="translate(6.335 6.177)" fill="#fff"/>
          <rect id="Rectangle_219" data-name="Rectangle 219" width="101.037" height="75.924" transform="translate(11.141 10.769)" fill="#ff6e8d"/>
          <path id="Path_338" data-name="Path 338" d="M965.849,365.347a35.8,35.8,0,0,0-6.593,2.475c-8.935,4.461-13.959,13.274-22.006,18.7-16.432,11.075-31.838-8.1-45.582-14.352-7.986-3.629-18.06-3.915-26.857-1.433v42.452H965.849Z" transform="translate(-853.671 -326.494)" fill="#ff5d87"/>
        </g>
        <path id="Path_339" data-name="Path 339" d="M923.712,323.14l-58.9,58.9v-58.9Zm42.137,28.216V323.14h-9.555L880.37,399.064h37.771Z" transform="translate(-853.671 -312.37)" fill="#fff" opacity="0.3"/>
      </g>
    </g>
    <g id="Group_141" data-name="Group 141" transform="translate(743.291 113.716)">
      <circle id="Ellipse_11" data-name="Ellipse 11" cx="21.116" cy="21.116" r="21.116" transform="translate(23.17 60.393)" fill="#f8b134"/>
      <path id="Path_340" data-name="Path 340" d="M922.06,169.658l-44.708,44.708H966.77Z" transform="translate(-877.352 -132.436)" fill="#b2b2b0"/>
      <rect id="Rectangle_220" data-name="Rectangle 220" width="2.534" height="72.64" transform="translate(43.441)" fill="#b2b2b0"/>
    </g>
    <g id="Group_156" data-name="Group 156" transform="translate(517.992 455.444)">
      <g id="Group_150" data-name="Group 150">
        <g id="Group_145" data-name="Group 145">
          <g id="Group_144" data-name="Group 144">
            <g id="Group_142" data-name="Group 142" transform="translate(10.292 130.766)">
              <rect id="Rectangle_221" data-name="Rectangle 221" width="10.769" height="27.502" fill="#b2b2b0"/>
              <rect id="Rectangle_222" data-name="Rectangle 222" width="10.769" height="27.502" transform="translate(212.28)" fill="#b2b2b0"/>
            </g>
            <g id="Group_143" data-name="Group 143">
              <path id="Rectangle_223" data-name="Rectangle 223" d="M29.5,0H195.4a29.5,29.5,0,0,1,29.5,29.5v84.5a29.5,29.5,0,0,1-29.5,29.5H29.5A29.5,29.5,0,0,1,0,114.009V29.5A29.5,29.5,0,0,1,29.5,0Z" transform="translate(10.292)" fill="#dfdfdf"/>
              <path id="Path_341" data-name="Path 341" d="M568.527,793.541c-8.953,0-16.212-8.911-16.212-19.9V760.926c0-10.992,7.259-19.9,16.212-19.9h192.48c8.953,0,16.213,8.906,16.213,19.9v12.715c0,10.989-7.259,19.9-16.213,19.9Z" transform="translate(-543.289 -665.356)" fill="#999" opacity="0.3"/>
              <path id="Rectangle_224" data-name="Rectangle 224" d="M22.92,0h0a22.92,22.92,0,0,1,22.92,22.92V72.714A22.916,22.916,0,0,1,22.923,95.63h0A22.92,22.92,0,0,1,0,72.71V22.92A22.92,22.92,0,0,1,22.92,0Z" transform="translate(0 48.888)" fill="#d2d2d2"/>
              <path id="Rectangle_225" data-name="Rectangle 225" d="M22.919,0h0A22.919,22.919,0,0,1,45.838,22.919V72.713A22.917,22.917,0,0,1,22.92,95.63h0A22.919,22.919,0,0,1,0,72.711V22.919A22.919,22.919,0,0,1,22.919,0Z" transform="translate(199.653 48.888)" fill="#d2d2d2"/>
              <path id="Rectangle_226" data-name="Rectangle 226" d="M22.919,0H222.573A22.917,22.917,0,0,1,245.49,22.917v.005a22.917,22.917,0,0,1-22.917,22.917H22.92A22.92,22.92,0,0,1,0,22.919v0A22.919,22.919,0,0,1,22.919,0Z" transform="translate(0 99.23)" fill="#d2d2d2"/>
            </g>
          </g>
          <path id="Path_342" data-name="Path 342" d="M678.254,708.1s-12.828-5.617-33.451-5.617-34.12,5.617-34.12,5.617,5.617-12.828,5.617-33.451-5.617-34.119-5.617-34.119,12.828,5.617,33.451,5.617,34.121-5.617,34.121-5.617-5.618,12.828-5.618,33.451S678.254,708.1,678.254,708.1Z" transform="translate(-562.82 -631.727)" fill="#f5f5f5"/>
          <path id="Path_343" data-name="Path 343" d="M797.581,708.1s-12.828-5.617-33.451-5.617-34.121,5.617-34.121,5.617,5.617-12.828,5.617-33.451-5.617-34.119-5.617-34.119,12.829,5.617,33.451,5.617,34.12-5.617,34.12-5.617-5.618,12.828-5.618,33.451S797.581,708.1,797.581,708.1Z" transform="translate(-602.749 -631.727)" fill="#f5f5f5"/>
        </g>
        <g id="Group_149" data-name="Group 149" transform="translate(258.434)">
          <g id="Group_148" data-name="Group 148">
            <g id="Group_146" data-name="Group 146" transform="translate(10.292 130.766)">
              <rect id="Rectangle_227" data-name="Rectangle 227" width="10.769" height="27.502" fill="#b2b2b0"/>
              <rect id="Rectangle_228" data-name="Rectangle 228" width="10.769" height="27.502" transform="translate(160.841)" fill="#b2b2b0"/>
            </g>
            <g id="Group_147" data-name="Group 147">
              <path id="Rectangle_229" data-name="Rectangle 229" d="M29.5,0h114.46a29.5,29.5,0,0,1,29.5,29.5v84.5a29.5,29.5,0,0,1-29.5,29.5H29.5A29.5,29.5,0,0,1,0,114.009V29.5A29.5,29.5,0,0,1,29.5,0Z" transform="translate(10.292)" fill="#dfdfdf"/>
              <path id="Path_344" data-name="Path 344" d="M956.928,793.541c-8.953,0-16.212-8.911-16.212-19.9V760.926c0-10.992,7.259-19.9,16.212-19.9h141.041c8.953,0,16.213,8.906,16.213,19.9v12.715c0,10.989-7.259,19.9-16.213,19.9Z" transform="translate(-931.69 -665.356)" fill="#999" opacity="0.3"/>
              <path id="Rectangle_230" data-name="Rectangle 230" d="M22.92,0h0A22.919,22.919,0,0,1,45.839,22.919V72.713A22.917,22.917,0,0,1,22.922,95.63h0A22.92,22.92,0,0,1,0,72.71V22.92A22.92,22.92,0,0,1,22.92,0Z" transform="translate(0 48.888)" fill="#d2d2d2"/>
              <path id="Rectangle_231" data-name="Rectangle 231" d="M22.92,0h0A22.918,22.918,0,0,1,45.838,22.918v49.8A22.917,22.917,0,0,1,22.921,95.63h0A22.918,22.918,0,0,1,0,72.712V22.92A22.92,22.92,0,0,1,22.92,0Z" transform="translate(148.214 48.888)" fill="#d2d2d2"/>
              <path id="Rectangle_232" data-name="Rectangle 232" d="M22.92,0H171.133a22.919,22.919,0,0,1,22.919,22.919v0a22.919,22.919,0,0,1-22.919,22.919H22.919A22.919,22.919,0,0,1,0,22.92v0A22.92,22.92,0,0,1,22.92,0Z" transform="translate(0 99.23)" fill="#d2d2d2"/>
            </g>
          </g>
          <path id="Path_345" data-name="Path 345" d="M1116.843,708.1s-12.828-5.617-33.451-5.617-34.119,5.617-34.119,5.617,5.617-12.828,5.617-33.451-5.617-34.119-5.617-34.119,12.829,5.617,33.451,5.617,34.119-5.617,34.119-5.617-5.617,12.828-5.617,33.451S1116.843,708.1,1116.843,708.1Z" transform="translate(-968.015 -631.727)" fill="#f5f5f5"/>
        </g>
      </g>
      <g id="Group_155" data-name="Group 155" transform="translate(460.929 16.409)">
        <g id="Group_151" data-name="Group 151" transform="translate(0 59.263)">
          <path id="Path_346" data-name="Path 346" d="M1304.646,753.829l26.607,74.079H1268.84l26.607-74.079" transform="translate(-1243.983 -745.312)" fill="#b2b2b0"/>
          <rect id="Rectangle_233" data-name="Rectangle 233" width="112.128" height="11.121" fill="#ececec"/>
        </g>
        <g id="Group_154" data-name="Group 154" transform="translate(38.763)">
          <g id="Group_152" data-name="Group 152" transform="translate(4.005)">
            <path id="Path_347" data-name="Path 347" d="M1307.907,717.352c-.3-2.306-1.743-3.766-3.216-5.434-2.605-3.183-5.189-6.263-5.011-10.69.039-2.8,2.276-4.694,2.994-7.288.93-3.813-.892-5.632-1.986-8.762-.607-1.608-.242-3.174-.658-4.924-.708-2.769-2.7-4.346-4.271-6.533a24.666,24.666,0,0,1,5.6,5.548c2.2,2.717,5.3,5.063,6.927,8.205a20.3,20.3,0,0,1,1.97,10.48c-.5,3.843-2.975,7.394-1.84,11.373" transform="translate(-1295.759 -659.242)" fill="#008980"/>
            <path id="Path_348" data-name="Path 348" d="M1319.417,719.907c.272-2.311,1.694-3.788,3.148-5.473,2.564-3.217,5.109-6.328,4.875-10.752-.074-2.8-2.334-4.667-3.085-7.251-.977-3.8.822-5.645,1.876-8.787.587-1.616.2-3.178.6-4.93.673-2.779,2.649-4.38,4.188-6.587a24.614,24.614,0,0,0-5.523,5.617c-2.166,2.745-5.234,5.13-6.825,8.293a20.3,20.3,0,0,0-1.838,10.5c.546,3.836,3.068,7.357,1.982,11.351" transform="translate(-1302.772 -660.047)" fill="#008980"/>
            <path id="Path_349" data-name="Path 349" d="M1314.252,702.531c.118-2.606-1.185-4.5-2.486-6.632-2.252-4.029-4.5-7.936-3.436-12.791.592-3.078,3.436-4.736,4.738-7.461,1.776-4.026.118-6.394-.474-10.067-.355-1.9.354-3.553.237-5.565-.237-3.2-2.132-5.33-3.435-8.054a27.749,27.749,0,0,1,5.092,7.223c1.9,3.437,4.856,6.634,6.04,10.422a22.779,22.779,0,0,1,.119,11.962c-1.3,4.145-4.738,7.58-4.262,12.2" transform="translate(-1299.874 -651.961)" fill="#00a099"/>
          </g>
          <g id="Group_153" data-name="Group 153" transform="translate(0 34.626)">
            <path id="Path_350" data-name="Path 350" d="M1316.511,728.833h-15.779l-7.889-24.456H1324.4Z" transform="translate(-1290.778 -704.127)" fill="#d9d9d9"/>
            <rect id="Rectangle_234" data-name="Rectangle 234" width="35.624" height="8.174" fill="#ececec"/>
          </g>
        </g>
      </g>
    </g>
    <g id="Group_158" data-name="Group 158" transform="translate(652.19 538.004)">
      <path id="Path_351" data-name="Path 351" d="M812.49,854.588h-5.113l-1.24-79.952h7.593Z" transform="translate(-762.421 -759.162)" fill="#3a9fd1"/>
      <g id="Group_157" data-name="Group 157" transform="translate(0 15.474)">
        <path id="Path_352" data-name="Path 352" d="M740.436,854.583h5.752l13.639-79.947h-9.472Z" transform="translate(-740.436 -774.636)" fill="#105e99"/>
        <path id="Path_353" data-name="Path 353" d="M873.5,854.583h-5.752l-13.639-79.947h9.472Z" transform="translate(-778.472 -774.636)" fill="#105e99"/>
      </g>
      <path id="Rectangle_235" data-name="Rectangle 235" d="M5.185,0H76.471a5.185,5.185,0,0,1,5.185,5.185V17.642a0,0,0,0,1,0,0H0a0,0,0,0,1,0,0V5.185A5.185,5.185,0,0,1,5.185,0Z" transform="translate(6.684)" fill="#fc6"/>
      <rect id="Rectangle_236" data-name="Rectangle 236" width="87.074" height="9.995" rx="1.074" transform="translate(3.975 8.949)" fill="#00457a"/>
    </g>
    <g id="Group_166" data-name="Group 166" transform="translate(876.749 257.627)">
      <path id="SVGID-2" data-name="SVGID" d="M6.263,0H175.212a8.975,8.975,0,0,1,8.975,8.975V124.383a8.975,8.975,0,0,1-8.975,8.975H6.32A6.32,6.32,0,0,1,0,127.037V6.263A6.263,6.263,0,0,1,6.263,0Z" transform="translate(0 0)"/>
      <g id="Group_165" data-name="Group 165" transform="translate(0 0)" clip-path="url(#clip-path)">
        <rect id="Rectangle_237" data-name="Rectangle 237" width="210.736" height="156.928" transform="translate(-26.55 -16.468)" fill="#797984"/>
        <path id="Path_354" data-name="Path 354" d="M1280.532,309.553l-149.2,165.87h176.185V309.553Z" transform="translate(-1095.798 -323.158)" fill="#4a4956"/>
        <path id="Path_355" data-name="Path 355" d="M1257,331.709a3.406,3.406,0,0,1,3.4,3.4V458.247a3.406,3.406,0,0,1-3.4,3.4H1083.038a3.406,3.406,0,0,1-3.4-3.4V335.111a3.406,3.406,0,0,1,3.4-3.4H1257m0-1.709H1083.038a5.111,5.111,0,0,0-5.111,5.111V458.247a5.111,5.111,0,0,0,5.111,5.111H1257a5.111,5.111,0,0,0,5.111-5.111V335.111A5.111,5.111,0,0,0,1257,330Z" transform="translate(-1077.927 -330)" fill="#333"/>
        <g id="Group_164" data-name="Group 164" transform="translate(-36.626 32.379)">
          <path id="Path_356" data-name="Path 356" d="M1271,452.256c7.249,2.3,11.52,15.114,11.805,16.253a26.61,26.61,0,0,1,0,4.84l11.674,37.339-15.66,3.89S1273.007,498,1271,490.06l-6.988-9.23Z" transform="translate(-1103.568 -403.289)" fill="#ff8b66"/>
          <path id="Path_357" data-name="Path 357" d="M1152.891,436.225c-10.263-1.053-15.388,12.614-15.388,12.614s-10.658,5.678-18.024,13.266c0,0,3.526-19.762,6.219-23.063l-7.235-4.725s-11.712,19.931-14.559,26.481a27.325,27.325,0,0,0-2.2,12.545s-2.643,9.494,4.538,9.89c17.28.953,37.47-17.424,37.47-17.424l6.888,1.823Z" transform="translate(-1049.099 -397.286)" fill="#ff8b66"/>
          <path id="Path_358" data-name="Path 358" d="M1233.77,550.061s-22.62,3.956-57.289-7.929l.639-51.393c-5.137-16.991-4.121-46.079,0-53.556,0,0,4.561.359,11.367,1.048,9.852,1,24.407,2.693,36.628,5.034a107.612,107.612,0,0,1,15.644,3.946s-.154,26.976-10.4,46.513C1230.353,493.725,1227.506,518.739,1233.77,550.061Z" transform="translate(-1073.327 -398.245)" fill="#2b2a35"/>
          <path id="Path_359" data-name="Path 359" d="M1232.416,443.793a33.958,33.958,0,0,1-2.2,5.928c-2.961,6.094-8.752,12.665-19.709,10.57-11.612-2.221-14.516-9.9-14.977-15.694a24.176,24.176,0,0,1,.256-5.837C1205.639,439.756,1220.195,441.452,1232.416,443.793Z" transform="translate(-1080.63 -398.773)" fill="#ff8b66"/>
          <g id="Group_159" data-name="Group 159" transform="translate(0 12.242)">
            <path id="Path_360" data-name="Path 360" d="M1024.016,407.414a25.014,25.014,0,0,1,2.079,4.736c.486,3.138.771,4.871,1.82,6.337s-1.066,12.791-1.066,12.791,5.14-.043,8.785-2.622c0,0,.191-8.981.585-9.679.778-1.4,3.152-2.082,4.044-4.92a22.493,22.493,0,0,1,3.4-5.978s-.641-1.511-1.926-.642-2.171,3.149-2.865,3.361a1.831,1.831,0,0,1-.422.08.1.1,0,0,0-.035.011,1.7,1.7,0,0,1-1.374-.4.221.221,0,0,1-.08-.073c-1.111-1.374-1.257-5.317-1.156-7.074.145-2.442.156-5.821-1.351-5.3s-.188,1.928-1.506,7.283l-.561.053c-.117.381-1.028-3.306-1.166-6.748-.1-2.369-1.677-1.543-2.038-.808s.079,3.1.131,4.816c.047,1.132.1,2.311.14,3.011l-.663.341c-2.225-4.17-1.369-5.845-2.741-5.968s-.977,3.349-.285,4.687a12.977,12.977,0,0,1,.772,2.948c-2.324-2.856-2.011-4.3-3.123-4.163C1022.268,403.643,1023.208,406.434,1024.016,407.414Z" transform="translate(-1022.882 -397.061)" fill="#ff8b66"/>
            <path id="Path_361" data-name="Path 361" d="M1039.93,420.9c.884-2.222,3.826-3.157,4.191-3.262a1.7,1.7,0,0,1-1.374-.4A4.091,4.091,0,0,0,1039.93,420.9Z" transform="translate(-1028.586 -403.812)" fill="#ef6e4b"/>
          </g>
          <path id="Path_362" data-name="Path 362" d="M1232.416,443.793a33.958,33.958,0,0,1-2.2,5.928h-16.691l-3.206,3.833-1.725-3.833-13.064-5.125a24.176,24.176,0,0,1,.256-5.837C1205.639,439.756,1220.195,441.452,1232.416,443.793Z" transform="translate(-1080.63 -398.773)" fill="#ef6e4b"/>
          <path id="Path_363" data-name="Path 363" d="M1208.939,430.209s3.634,4.349,1.463,6.98c0,0,2.254,4.73,6.306,4.939,4.681.242,8.3-3.852,8.3-3.852s-2.476-12.383,0-14.7Z" transform="translate(-1085.14 -393.692)" fill="#ef6e4b"/>
          <g id="Group_161" data-name="Group 161" transform="translate(113.282)">
            <path id="Path_364" data-name="Path 364" d="M1207.091,420.785c8.127-1.325,17.293-8.622,14.7-24.542-1.339-8.213-6.339-12.568-15.442-11.085s-12.115,7.146-10.776,15.359C1198.36,417.624,1198.7,422.153,1207.091,420.785Z" transform="translate(-1193.848 -380.74)" fill="#ff8b66"/>
            <path id="Path_365" data-name="Path 365" d="M1195.8,409.532s.566,5.237-2.576,8.751l3.059,1.48.48,2.944a10.1,10.1,0,0,0,7.72-3.266C1207.771,415.815,1195.8,409.532,1195.8,409.532Z" transform="translate(-1193.166 -388.993)" fill="#ff8b66"/>
            <g id="Group_160" data-name="Group 160" transform="translate(2.089 16.479)">
              <path id="Path_366" data-name="Path 366" d="M1200.5,404.724a.412.412,0,0,0,.091-.751,5.5,5.5,0,0,0-4.03-.279.411.411,0,0,0-.264.518.42.42,0,0,0,.519.264,4.744,4.744,0,0,1,3.361.21A.412.412,0,0,0,1200.5,404.724Z" transform="translate(-1196.273 -403.429)" fill="#662c33"/>
            </g>
            <path id="Path_367" data-name="Path 367" d="M1201.382,409.563c-.561.092-.9.868-.76,1.735s.71,1.494,1.271,1.4.9-.868.76-1.734S1201.942,409.472,1201.382,409.563Z" transform="translate(-1195.629 -389)" fill="#394d6f"/>
            <path id="Path_368" data-name="Path 368" d="M1199.9,428.581s3.032-.518,4.178-1.6c0,0-.523,1.953-3.715,2.681Z" transform="translate(-1195.399 -394.83)" fill="#394d6f"/>
            <path id="Path_369" data-name="Path 369" d="M1205.692,393.7s4.015,3.693,6.666,12.595c0,0,1.055-5.974,5.22-4.758s1.4,8.77-1.162,9.372c0,0,2.408,4.638,5.628,5.589,0,0,9.465-12.842,4.945-24.008S1205.692,393.7,1205.692,393.7Z" transform="translate(-1197.336 -381.729)" fill="#662c33"/>
            <path id="Path_370" data-name="Path 370" d="M1204.15,417.181a1.819,1.819,0,1,0,1.667-1.545A1.627,1.627,0,0,0,1204.15,417.181Z" transform="translate(-1196.819 -391.033)" fill="#fa666c"/>
            <path id="Path_371" data-name="Path 371" d="M1215.2,413.839s1.094-7.029,5.142-5.929c4.652,1.264,3.364,9.627-.834,10.32S1215.2,413.839,1215.2,413.839Z" transform="translate(-1200.518 -388.411)" fill="#ff8b66"/>
            <path id="Path_372" data-name="Path 372" d="M1201.49,390.638a13.869,13.869,0,0,0-6.65,1.319s-3.64-3.68-.286-9.164,3.085,0,3.085,0,7.559-4.761,10.178-4.06.9,2.189.9,2.189,15.169-1.873,14.068,8.5C1222.785,389.427,1212.19,385.885,1201.49,390.638Z" transform="translate(-1193.134 -378.663)" fill="#662c33"/>
          </g>
          <g id="Group_162" data-name="Group 162" transform="translate(71.015 20.136)">
            <circle id="Ellipse_12" data-name="Ellipse 12" cx="11.016" cy="11.016" r="11.016" transform="matrix(0.027, -1, 1, 0.027, 0, 22.023)" fill="#f24075"/>
            <path id="Path_373" data-name="Path 373" d="M1148.595,429.874a8.66,8.66,0,1,1,.329-12.243A8.66,8.66,0,0,1,1148.595,429.874Z" transform="translate(-1131.071 -410.934)" fill="#d61b53"/>
          </g>
          <path id="Path_374" data-name="Path 374" d="M1127.129,428.793c1.516-2.08,7.072-11.107,8.5-10.983s7.693.852,8.8,2.022c.677.715,2,6.245,1.643,7.326s-2.944,2.791-2.944,2.791a26.72,26.72,0,0,1-2.494,2.692c-1.734,1.685-5.891,1.707-6.968,3.764S1127.129,428.793,1127.129,428.793Z" transform="translate(-1057.765 -391.762)" fill="#ff8b66"/>
          <path id="Path_375" data-name="Path 375" d="M1149.18,434.128s-.537-4.517-1.208-5.485-3.031-1.677-4.316-.344-1.693,5.915-1.693,5.915Z" transform="translate(-1062.729 -395.027)" fill="#d61b53"/>
          <g id="Group_163" data-name="Group 163" transform="translate(70.573 33.754)">
            <circle id="Ellipse_13" data-name="Ellipse 13" cx="11.016" cy="11.016" r="11.016" transform="matrix(0.027, -1, 1, 0.027, 0, 22.024)" fill="#f24075"/>
            <path id="Path_376" data-name="Path 376" d="M1147.915,450.326a8.661,8.661,0,1,1,.329-12.244A8.661,8.661,0,0,1,1147.915,450.326Z" transform="translate(-1130.402 -431.395)" fill="#d61b53"/>
          </g>
        </g>
      </g>
    </g>
    <path id="Path_377" data-name="Path 377" d="M1140.193,530.114l-.009.1-.012.157-.018.175c-.029.263-.076.625-.148,1.075a36.209,36.209,0,0,1-.772,3.6,39.1,39.1,0,0,1-1.626,4.836c-.351.86-.749,1.733-1.187,2.6s-.914,1.728-1.437,2.56-1.076,1.638-1.647,2.407l-.889,1.111c-.311.352-.607.7-.916,1.035s-.618.65-.929.952l-.928.865-.912.771c-.3.241-.6.459-.883.674-.566.427-1.116.774-1.593,1.086-.5.288-.913.552-1.274.741l-1.133.585.945-.846c.3-.27.633-.628,1.026-1.017.374-.413.8-.866,1.224-1.4.209-.267.433-.538.65-.829l.648-.916.631-.995c.208-.342.4-.7.607-1.063s.378-.747.57-1.123l.524-1.172c.323-.8.63-1.616.882-2.449a32.315,32.315,0,0,0,1.388-9.313,29,29,0,0,0-.134-3.021c-.034-.353-.07-.621-.1-.788l-.017-.109-.014-.05a.512.512,0,0,1-.011-.066Z" transform="translate(-216.555 -139.336)" fill="#2b2a35"/>
    <g id="Group_171" data-name="Group 171" transform="translate(889.897 264.354)">
      <path id="Path_378" data-name="Path 378" d="M1148.319,343.214V366.9a3.108,3.108,0,0,1-3.1,3.109H1100.8a3.109,3.109,0,0,1-3.109-3.109V343.214a3.1,3.1,0,0,1,3.109-3.1h44.419a3.094,3.094,0,0,1,3.064,2.643A2.426,2.426,0,0,1,1148.319,343.214Z" transform="translate(-1097.687 -340.11)" fill="#efefef"/>
      <path id="Path_379" data-name="Path 379" d="M1148.279,342.753a115.223,115.223,0,0,1-50.592,23.462v-23a3.1,3.1,0,0,1,3.109-3.1h44.419A3.094,3.094,0,0,1,1148.279,342.753Z" transform="translate(-1097.687 -340.11)" fill="#fff"/>
      <path id="Path_380" data-name="Path 380" d="M1141.163,377.605l.049.08.072.122.086.134c.128.2.312.475.551.81a32.676,32.676,0,0,0,2.07,2.6,35.214,35.214,0,0,0,3.256,3.258c.629.554,1.3,1.1,2,1.625s1.433,1.031,2.19,1.493,1.528.892,2.3,1.284l1.164.542c.393.16.774.325,1.156.469s.76.278,1.134.4l1.1.327,1.047.257c.339.075.671.13.985.191.629.118,1.213.177,1.723.238.516.035.96.08,1.328.089l1.152.017-1.1-.3c-.348-.1-.763-.253-1.238-.41-.469-.184-1-.379-1.551-.64-.276-.132-.566-.261-.858-.41l-.892-.48-.91-.55c-.306-.194-.608-.409-.918-.616s-.605-.452-.911-.679l-.894-.738c-.583-.518-1.158-1.053-1.7-1.626a29.152,29.152,0,0,1-4.863-6.973,26.3,26.3,0,0,1-1.105-2.5c-.113-.3-.192-.53-.238-.677l-.03-.1-.009-.046a.532.532,0,0,0-.016-.058Z" transform="translate(-1112.235 -351.697)" fill="#efefef"/>
      <g id="Group_167" data-name="Group 167" transform="translate(6.807 5.692)">
        <path id="Path_381" data-name="Path 381" d="M1144.08,350.373h-35.308a.854.854,0,0,1,0-1.709h35.308a.854.854,0,1,1,0,1.709Z" transform="translate(-1107.918 -348.664)" fill="#666"/>
      </g>
      <g id="Group_168" data-name="Group 168" transform="translate(6.807 11.387)">
        <path id="Path_382" data-name="Path 382" d="M1144.08,358.931h-35.308a.854.854,0,1,1,0-1.708h35.308a.854.854,0,1,1,0,1.708Z" transform="translate(-1107.918 -357.223)" fill="#666"/>
      </g>
      <g id="Group_169" data-name="Group 169" transform="translate(6.807 17.081)">
        <path id="Path_383" data-name="Path 383" d="M1144.08,367.49h-35.308a.854.854,0,0,1,0-1.709h35.308a.854.854,0,1,1,0,1.709Z" transform="translate(-1107.918 -365.781)" fill="#666"/>
      </g>
      <g id="Group_170" data-name="Group 170" transform="translate(6.807 22.776)">
        <path id="Path_384" data-name="Path 384" d="M1132.684,376.049h-23.912a.854.854,0,0,1,0-1.709h23.912a.854.854,0,0,1,0,1.709Z" transform="translate(-1107.918 -374.34)" fill="#666"/>
      </g>
    </g>
    <g id="Group_179" data-name="Group 179" transform="translate(563.228 334.449)">
      <path id="Path_385" data-name="Path 385" d="M1059.914,617.5s10.248,4.2,9.984,5.3.934,6.768-1.874,7.762-5.22,1.651-5.22,1.651.466,3.7-4.966,2.6-11.136-5.7-10.762-9.307S1054.222,617.469,1059.914,617.5Z" transform="translate(-754.077 -503.026)" fill="#ef6e4b"/>
      <path id="Path_386" data-name="Path 386" d="M727.008,682.4,729.5,680l9.336,2.4s14.806-1.474,15.793-1.2,19.741-5.631,19.741-5.631L834.7,680s2.581,14.306,2.878,22.2-3.169,19.412-10.319,21.386-77.884,3.619-82.164,1.645-11.685,1.453-14.069.892S722.087,707.014,727.008,682.4Z" transform="translate(-646.383 -522.457)" fill="#0d527c"/>
      <path id="Path_387" data-name="Path 387" d="M843.368,515.46c2.628,1.111,10.156,5.451,21.593,3.1,0,0,5.92-1.283,6.515.531,1.631,4.972-12.452,22.192-24.925,14.23s-14.185-13.062-12.139-14.686S843.368,515.46,843.368,515.46Z" transform="translate(-682.676 -468.881)" fill="#adbec4"/>
      <g id="Group_172" data-name="Group 172" transform="translate(63.541 28.113)">
        <path id="Path_388" data-name="Path 388" d="M730.8,504.181a14.362,14.362,0,1,1-12.1-16.316A14.362,14.362,0,0,1,730.8,504.181Z" transform="translate(-702.232 -487.707)" fill="#f24075"/>
        <path id="Path_389" data-name="Path 389" d="M731.318,507.036a11.292,11.292,0,1,1-9.51-12.828A11.292,11.292,0,0,1,731.318,507.036Z" transform="translate(-704.448 -489.841)" fill="#d61b53"/>
      </g>
      <path id="Path_390" data-name="Path 390" d="M796.384,615.169h68.644c9.41-32.443,21.586-76.393,19.343-79.22a22.324,22.324,0,0,0-6.006-4.674c-7.042-4.177-19.3-8.972-35.793-11.818a94.738,94.738,0,0,0-31.9-.092,60.221,60.221,0,0,0-8.664,2.07,264.776,264.776,0,0,0-1.333,56.373C801.483,587.276,799.075,602.252,796.384,615.169Z" transform="translate(-670.196 -469.751)" fill="#ff8b66"/>
      <path id="Path_391" data-name="Path 391" d="M885.552,531.275c-6.719,1.849-32.043-.666-35.91-1.141-4.368-.536-5.631,5.778-7.475,4.938s-2.965-7.31-7.438-8.187c-4.461-.861-16.856-7.5-16.856-7.5l-.012-.016a94.737,94.737,0,0,1,31.9.092C866.248,522.3,878.51,527.1,885.552,531.275Z" transform="translate(-677.382 -469.751)" fill="#ef6e4b"/>
      <path id="Path_392" data-name="Path 392" d="M860.467,503.43s-5.795,7.833-9.731,10.983c0,0,7.373,10.542,21.238,3.38,0,0-3.071-2.715,2.62-13.853Z" transform="translate(-688.383 -464.855)" fill="#ef6e4b"/>
      <path id="Path_393" data-name="Path 393" d="M786.855,520.513c-11.3-2.136-18.818,10.365-20.965,20.057,0,0-9.881,9.311-16.579,16.254s-14.628,12.663-16.942,21.087.931,8.04,10.48,8.12,41.16-32.226,41.16-32.226Z" transform="translate(-648.535 -470.491)" fill="#ff8b66"/>
      <path id="Path_394" data-name="Path 394" d="M862.033,526.9a83.632,83.632,0,0,0-9.229,31.173c-1.39,17.377,7.143,27.649,9.744,28.237,2.284.516,3.216-2.178,3.216-2.178.311,3.4-2.855,12.461-2.367,13.95s-.942,25.687-6.786,36.646c0,0,1.251,14.113-2.728,15.966,0,0-43.46-7.2-58.73-9.072C776.986,639.4,773.1,626.7,772.8,624.836c-4.884-31.018,18.873-61.444,19.566-68.777s6.9-32.6,13.242-37.782c0,0,9.854-1.973,10.255-.7,0,0-2.731,9.013-1.027,14.555,2.538,8.256,16.974,11.2,24.429,4.513,5.5-4.93,9.639-13.352,11.014-13.957s3.8,1.041,6.222,1.817C859.077,525.327,861.633,525.344,862.033,526.9Z" transform="translate(-662.084 -469.446)" fill="#f24075"/>
      <path id="Path_395" data-name="Path 395" d="M739.289,582.957c-1.286-7.241.836-11.988-6.047-19.686s-10.313-32.286-10.313-32.286L710.919,529.2s1.268,35.963,1.208,39.549,6.807,18.3,11.668,21.852,17.76-3.54,17.76-3.54Z" transform="translate(-641.597 -473.479)" fill="#ff8b66"/>
      <path id="Path_396" data-name="Path 396" d="M710.555,522.386c-.117-3.354-2.025-17.529-.456-18.554s8.579-5.313,10.658-5c1.27.189,7.078,4.8,7.579,6.2s-.777,5.232-.777,5.232a34.847,34.847,0,0,1-.394,4.769c-.424,3.124-4.672,6.49-4.123,9.467S710.555,522.386,710.555,522.386Z" transform="translate(-641.117 -463.31)" fill="#ff8b66"/>
      <path id="Path_397" data-name="Path 397" d="M734.21,513.721s-4.184-4.2-5.651-4.657-4.459.717-4.7,3.119,3.02,7.431,3.02,7.431Z" transform="translate(-645.921 -466.708)" fill="#d61b53"/>
      <g id="Group_173" data-name="Group 173" transform="translate(73.532 41.948)">
        <circle id="Ellipse_14" data-name="Ellipse 14" cx="14.363" cy="14.363" r="14.363" transform="translate(0 1.004) rotate(-2.002)" fill="#f24075"/>
        <path id="Path_398" data-name="Path 398" d="M747.071,528.568a11.292,11.292,0,1,1-9.51-12.828A11.291,11.291,0,0,1,747.071,528.568Z" transform="translate(-719.71 -510.882)" fill="#d61b53"/>
      </g>
      <path id="Path_399" data-name="Path 399" d="M874.466,519.372c3.11,1.311-11.638,24.916-12.105,33.794s-.649,8.11,2.08,9.174,2.058,2.659,3.708,4.652,6.578-.628,6.578-.628,4.529,1.067,4.022.6-.184-13.629,3.809-25.315,5.873-19.4,2.116-19.673a5.262,5.262,0,0,0-4.288-3.884A6.541,6.541,0,0,0,874.466,519.372Z" transform="translate(-692.181 -469.694)" fill="#cfd8dc"/>
      <path id="Path_400" data-name="Path 400" d="M835.062,515.491s-6.322.05-12.717,15.412a143.412,143.412,0,0,0-5.872,16.565c-.463,1.659-.883,3.331-1.236,5.018a18.843,18.843,0,0,0-.369,5.4.952.952,0,0,1-.058.488c-.236.472-.943.277-1.458.4-.886.207-1.115,1.364-1.039,2.272s.218,1.967-.442,2.594a2.7,2.7,0,0,1-1.738.524c-2.557.158-5.461.189-7.253-1.642a6.615,6.615,0,0,0,2.849-5.48c-.01-.59-.1-1.175-.155-1.762-.528-5.611,1.5-11.73,3.177-17.042a57.421,57.421,0,0,1,7.468-16.032c6.875-9.686,10.521-7.991,10.521-7.991S832.843,511.866,835.062,515.491Z" transform="translate(-672.369 -468.214)" fill="#cfd8dc"/>
      <g id="Group_176" data-name="Group 176" transform="translate(165.533)">
        <path id="Path_401" data-name="Path 401" d="M856.486,465.994c-3.233-4.827,1.451-21.093,16.344-18.789,0,0,8.919-2.8,14.538-1.316s15.982,5.447,14.337,16.378-12.831,7.9-12.831,7.9S861.308,473.192,856.486,465.994Z" transform="translate(-855.515 -445.456)" fill="#662c33"/>
        <path id="Path_402" data-name="Path 402" d="M864.69,478.191c-3.586,22.582,21.422,30.882,30.114,19.258a20.8,20.8,0,0,0,3.894-14.8c3.9-8.784,3.28-15.4-1.046-18.326C882.6,454.134,868.276,455.609,864.69,478.191Z" transform="translate(-858.468 -449.747)" fill="#ff8b66"/>
        <path id="Path_403" data-name="Path 403" d="M893.067,485.164c-.3,1.235.008,2.372.694,2.54s1.487-.7,1.789-1.931-.008-2.371-.693-2.54S893.369,483.93,893.067,485.164Z" transform="translate(-868.042 -458.09)" fill="#1a4850"/>
        <path id="Path_404" data-name="Path 404" d="M909.695,490.731c-.3,1.234.009,2.371.694,2.54s1.488-.7,1.79-1.932-.008-2.371-.694-2.539S910,489.5,909.695,490.731Z" transform="translate(-873.606 -459.953)" fill="#1a4850"/>
        <path id="Path_405" data-name="Path 405" d="M883.441,492.662a2.424,2.424,0,1,0,3-.389A2.168,2.168,0,0,0,883.441,492.662Z" transform="translate(-864.784 -460.984)" fill="#db614d"/>
        <path id="Path_406" data-name="Path 406" d="M914.956,498.53a21.11,21.11,0,0,1-.343,3.764c-.039,0-.066-.013-.105-.013a2.163,2.163,0,0,1-2.053-2.224A2.13,2.13,0,0,1,914.956,498.53Z" transform="translate(-874.562 -463.209)" fill="#db614d"/>
        <g id="Group_174" data-name="Group 174" transform="translate(24.592 18.629)">
          <path id="Path_407" data-name="Path 407" d="M897.828,475.465a.76.76,0,0,1-.293-.059,5.649,5.649,0,0,0-3.992-.113.75.75,0,1,1-.635-1.36,7.088,7.088,0,0,1,5.217.094.75.75,0,0,1-.3,1.439Z" transform="translate(-892.474 -473.454)" fill="#662c33"/>
        </g>
        <g id="Group_175" data-name="Group 175" transform="translate(38.283 22.863)">
          <path id="Path_408" data-name="Path 408" d="M916.174,483.5a.742.742,0,0,1-.136-.013.751.751,0,0,1-.6-.873c.1-.558-1.162-1.149-1.828-1.327a.75.75,0,1,1,.388-1.45c1.23.329,3.228,1.34,2.916,3.047A.751.751,0,0,1,916.174,483.5Z" transform="translate(-913.051 -479.817)" fill="#662c33"/>
        </g>
        <path id="Path_409" data-name="Path 409" d="M905.718,498.467a7.79,7.79,0,0,1-2.624-.553l.389-1.056c1.883.691,2.8.52,3.244.254a1.046,1.046,0,0,0,.453-.554,20.463,20.463,0,0,1-1.473-10.993l1.109.188a19.613,19.613,0,0,0,1.461,10.491l.07.143-.015.158a2.114,2.114,0,0,1-.989,1.508A3,3,0,0,1,905.718,498.467Z" transform="translate(-871.436 -458.878)" fill="#db614d"/>
        <path id="Path_410" data-name="Path 410" d="M859.169,469.841c-.171.753-.338-.182-.452.689-2.478,19.022,4.237,21.082,4.237,21.082s-.64-11.707,1.106-11.053,1.619,4.227,1.619,4.227,2.676-6.832,7.269-8.669c3.2-1.28,5.774-5.536,7.045-8.007Z" transform="translate(-856.402 -453.037)" fill="#662c33"/>
        <path id="Path_411" data-name="Path 411" d="M867.931,487.17s-2.58-5.107-6.553-3.33-.249,10.918,3.432,11.507S867.931,487.17,867.931,487.17Z" transform="translate(-856.906 -458.175)" fill="#ff8b66"/>
        <path id="Path_412" data-name="Path 412" d="M871.688,485.708s1.04,6.66,3.549,8.964,13.206,2.961,16.193,4.825a15.289,15.289,0,0,1,4.246.878c1.263.658,3.437.013,3.694-1.176,0,0-2.185,12.45-13.526,13.24s-18.3-7.867-18.187-13.365,3.211-6.1,2.977-11.83Z" transform="translate(-859.577 -458.925)" fill="#662c33"/>
        <path id="Path_413" data-name="Path 413" d="M857.045,467.134c-.032.406-.052.828-.047,1.268-.013.182-.012.366-.009.536,0,.411-.021.8-.034,1.185,0,.126-.023.251-.028.378a1.142,1.142,0,0,0-.005.226,2.742,2.742,0,0,0,.116,1.037,1.226,1.226,0,0,0,.764.864s5.214-7.356,17.722-7.269,22.075,3.576,22.939,7.1a1.512,1.512,0,0,0,.762-.27.846.846,0,0,0,.316-.888,2.676,2.676,0,0,1,.269-1.334.689.689,0,0,0,.024-.067,5.048,5.048,0,0,0,.279-1.4,6.021,6.021,0,0,0-.368-1.91s-1.773-6.615-17.148-8.474c-16.6-2-23.881,5.964-24.867,6.979A3.4,3.4,0,0,0,857.045,467.134Z" transform="translate(-855.984 -449.586)" fill="#cfd8dc"/>
        <path id="Path_414" data-name="Path 414" d="M902.382,512.545c-.751,1.143-2.053,1.614-2.906,1.053s-.937-1.943-.186-3.085,2.053-1.614,2.906-1.053S903.133,511.4,902.382,512.545Z" transform="translate(-869.991 -466.794)" fill="#d61b53"/>
        <path id="Path_415" data-name="Path 415" d="M909.768,458.259s.11,4.806,1.372,5.822.823-3.1.823-3.1,4.165,7.869,5.814,7.584-.748-5.018-.748-5.018S913.19,457.456,909.768,458.259Z" transform="translate(-873.669 -449.716)" fill="#662c33"/>
        <path id="Path_416" data-name="Path 416" d="M862.768,461.435s-2.182,6.183-3.163,6.178.1-3.089.1-3.089-1.765,6.055-2.916,4.71S858.576,461.919,862.768,461.435Z" transform="translate(-855.857 -450.803)" fill="#662c33"/>
      </g>
      <path id="Path_417" data-name="Path 417" d="M814.668,572.28c-.093-1.71-.284-11.4,2.907-19.571s-4.519.063-6.546,10.8-1.112,10.453.448,11.538S814.884,576.283,814.668,572.28Z" transform="translate(-674.705 -480.237)" fill="#adbec4"/>
      <path id="Path_418" data-name="Path 418" d="M872.959,575.091c1.168.96,4.1-.688,4.1-.688s-.027-11.463,1.181-16.689,3.934-11.2,3.17-12.61-6.641,8.32-8.552,17.545S871.137,573.594,872.959,575.091Z" transform="translate(-695.334 -478.755)" fill="#adbec4"/>
      <path id="Path_419" data-name="Path 419" d="M669.56,688.572c-4.358,3.413-8.646,15.181-7.712,22.653L647.974,801.3l13.407,2.39s23.092-52.634,24.96-60.573,1.315-22.918,3.332-26.411l18.2,4.3s7.153-22.7-2.7-35.08C705.174,685.932,675.245,684.12,669.56,688.572Z" transform="translate(-620.534 -525.802)" fill="#ff8b66"/>
      <g id="Group_177" data-name="Group 177" transform="translate(0 269.82)">
        <path id="Path_420" data-name="Path 420" d="M606.735,877.533a20.016,20.016,0,0,0,.156,2.6h44.068a25.027,25.027,0,0,1-.062-2.6c1-9.5-.98-15.339-.98-15.339s2.348-3.607,1.284-5.371c-1.483-2.459-9.412-3.961-11.017-3.256-.892.392-1.475,3.607-1.475,3.607s.291-3.431-.36-4.287c-.827-1.089-5.127-1.9-5.127-1.9-2.569-.467-.866,9.592-3.931,11.957a15.686,15.686,0,0,1-2.52,1.617c-.4.218-.808.42-1.229.607a21.178,21.178,0,0,1-2.815,1.042,68.847,68.847,0,0,1-10.578,1.851C607.451,868.791,606.735,874.22,606.735,877.533Z" transform="translate(-606.735 -850.97)" fill="#cfd8dc"/>
        <path id="Path_421" data-name="Path 421" d="M606.735,890.892a20.014,20.014,0,0,0,.156,2.6h44.068c0-.871-.016-1.742-.062-2.6Z" transform="translate(-606.735 -864.329)" fill="#adbec4"/>
        <path id="Path_422" data-name="Path 422" d="M636.846,870.581l6.113,1.96,1.291-2.24-4.885-1.337A15.684,15.684,0,0,1,636.846,870.581Z" transform="translate(-616.811 -856.991)" fill="#adbec4"/>
        <path id="Path_423" data-name="Path 423" d="M630.768,873.349l4.122,2.737,2.536-1-3.843-2.784A21.217,21.217,0,0,1,630.768,873.349Z" transform="translate(-614.777 -858.11)" fill="#adbec4"/>
      </g>
      <path id="Path_424" data-name="Path 424" d="M795.361,716.63s-5.438-22.013,1.471-28.28,14.506-10.7,16.959-10.951,15.757,5.013,18.647,7.975c0,0,20.017-3.39,25.664,1.01s5.071,29.854-6.714,37.311a35.92,35.92,0,0,1-23.938,5.109S799.812,739.332,795.361,716.63Z" transform="translate(-669.173 -523.066)" fill="#105e99"/>
      <path id="Path_425" data-name="Path 425" d="M827.851,686.992c-4.884-5.716-19.12-6.684-23.717-.736-5.072,6.562-5.64,16.129-4.891,19.664,0,0-.123,5.637-.246,10.294s-3.287,21.1-2.906,25.884c1.109,13.918,3.269,33.931,1.868,57.559l16.463.818s12.546-49.316,12.546-59.124,3.363-19.329,4.764-26.8C832.22,711.944,836.844,697.517,827.851,686.992Z" transform="translate(-670.087 -524.685)" fill="#ff8b66"/>
      <g id="Group_178" data-name="Group 178" transform="translate(117.688 270.088)">
        <path id="Path_426" data-name="Path 426" d="M783.652,877.668a11.082,11.082,0,0,0,.5,2.6H813.5a13.185,13.185,0,0,0,.824-2.6c1.568-7.611-1.62-5.532-2.087-12.537-.223-3.338,1.355-9.894-.934-11.208-.506-.291-1.868,2.1-1.868,2.1s.234-2.685-1.518-3.5c-2.724-1.271-9.6-1.773-12.025,0-.488.357-1.051,3.152-1.051,3.152s-1.53-2.937-2.1-2.335c-2.858,3.01-.5,14.576-5.745,17.329C783.854,872.317,783.45,875.428,783.652,877.668Z" transform="translate(-783.609 -851.372)" fill="#cfd8dc"/>
        <path id="Path_427" data-name="Path 427" d="M814.348,890.892H783.674a11.074,11.074,0,0,0,.5,2.6h29.352A13.183,13.183,0,0,0,814.348,890.892Z" transform="translate(-783.63 -864.596)" fill="#adbec4"/>
        <path id="Path_428" data-name="Path 428" d="M792.823,877.211s12.367-2.819,18.006.832V876S800.426,870.946,792.823,877.211Z" transform="translate(-786.692 -858.969)" fill="#adbec4"/>
        <path id="Path_429" data-name="Path 429" d="M796.506,872.5s7.9-3.609,15.555,0l-.875-2.059S802.039,866.982,796.506,872.5Z" transform="translate(-787.924 -857.395)" fill="#adbec4"/>
      </g>
      <path id="Path_430" data-name="Path 430" d="M1002.263,591.656a123.922,123.922,0,0,1-14.477,0c-5.064-.691-27.38-5.813-27.38-5.813-10.567-11.4-24.056-28.022-24.056-28.022-2.632-7.9-8.226-17.6-18.194-19.9,0,0-4.458,23.037-2.244,30.3,2.839,9.322,24.057,30.668,24.057,30.668s3.948,8.163,11.886,8.006c11.917-.236,50.846-2.193,50.846-2.193l.878.1Z" transform="translate(-709.986 -476.397)" fill="#ff8b66"/>
      <path id="Path_431" data-name="Path 431" d="M1043.97,617.631l12.5-2.084s11.774,2.809,15.567,2.961c2.074.083,1.643,2.286-1.063,2.742-1.609.271-10.117-.28-11.871-.908s-6.8,2.662-6.581,4.526,1.1,4.5,2.852,5.374.877,4.826-1.536,3.729-6.361-.439-11.406-4.167S1041.071,618.114,1043.97,617.631Z" transform="translate(-751.693 -502.372)" fill="#ff8b66"/>
      <path id="Path_432" data-name="Path 432" d="M913.384,587.316l-5.511-6.712s-3.142,6.964-7.451,8.121C900.422,588.725,904.936,594.357,913.384,587.316Z" transform="translate(-705.009 -490.68)" fill="#ef6e4b"/>
    </g>
    <g id="Group_182" data-name="Group 182" transform="translate(810.41 431.664)">
      <g id="Group_180" data-name="Group 180" transform="translate(0 42.68)">
        <path id="Path_433" data-name="Path 433" d="M1193.444,681.127l6.572,142.171h-4.826l-12.275-142.171Z" transform="translate(-1046.72 -664.212)" fill="#00457a"/>
        <path id="Path_434" data-name="Path 434" d="M991.572,681.127,985,823.3h4.825L1002.1,681.127Z" transform="translate(-980.493 -664.212)" fill="#105e99"/>
        <path id="Path_435" data-name="Path 435" d="M1052.933,681.127,1050.312,823.3h4.826l8.324-142.171Z" transform="translate(-1002.348 -664.212)" fill="#00457a"/>
        <path id="Path_436" data-name="Path 436" d="M1124.174,681.127,1126.8,823.3h-4.826l-8.324-142.171Z" transform="translate(-1023.54 -664.212)" fill="#105e99"/>
        <path id="Path_437" data-name="Path 437" d="M1133,676.835V659.664H986.653v17.171a3.392,3.392,0,0,0,3.392,3.392h139.567A3.392,3.392,0,0,0,1133,676.835Z" transform="translate(-981.046 -657.03)" fill="#00457a"/>
        <path id="Path_438" data-name="Path 438" d="M1073.162,684.25,1133,676.263v-4.578H986.653v9.173a3.392,3.392,0,0,0,3.392,3.392Z" transform="translate(-981.046 -661.053)" fill="#105e99"/>
        <rect id="Rectangle_238" data-name="Rectangle 238" width="157.566" height="10.637" rx="2.158" fill="#f4bb56"/>
        <rect id="Rectangle_239" data-name="Rectangle 239" width="157.566" height="7.114" rx="2.158" fill="#fc6"/>
      </g>
      <g id="Group_181" data-name="Group 181" transform="translate(34.537)">
        <path id="Path_439" data-name="Path 439" d="M1114.781,629.728H1073a1.6,1.6,0,0,1-1.644-2.051l8.223-34.065a2.831,2.831,0,0,1,2.634-2.051h41.784a1.6,1.6,0,0,1,1.644,2.051l-8.223,34.065A2.831,2.831,0,0,1,1114.781,629.728Z" transform="translate(-1043.906 -591.562)" fill="#80d5ff"/>
        <path id="Path_440" data-name="Path 440" d="M1116.76,629.728h-41.785a1.6,1.6,0,0,1-1.644-2.051l8.223-34.065a2.831,2.831,0,0,1,2.633-2.051h41.785a1.594,1.594,0,0,1,1.643,2.051l-8.223,34.065A2.832,2.832,0,0,1,1116.76,629.728Z" transform="translate(-1044.568 -591.562)" fill="#3a9fd1"/>
        <rect id="Rectangle_240" data-name="Rectangle 240" width="56.426" height="9.12" transform="translate(22.674 33.56)" fill="#105e99"/>
        <rect id="Rectangle_241" data-name="Rectangle 241" width="34.573" height="9.12" transform="translate(0 33.56)" fill="#00457a"/>
        <path id="Path_441" data-name="Path 441" d="M1116.142,615.625a4.555,4.555,0,0,1,.317-.747,3.293,3.293,0,0,0-.713-.076,5.4,5.4,0,0,0-4.771,3.619c-.636,2,.469,3.619,2.468,3.619a5.4,5.4,0,0,0,4.454-2.872C1116.359,618.828,1115.586,617.371,1116.142,615.625Z" transform="translate(-1057.124 -599.339)" fill="#80d5ff"/>
      </g>
    </g>
    <g id="Group_183" data-name="Group 183" transform="translate(774.57 615.623)">
      <circle id="Ellipse_15" data-name="Ellipse 15" cx="13.481" cy="13.481" r="13.481" transform="translate(0 10.387) rotate(-22.658)" fill="#80d5ff"/>
      <path id="Path_442" data-name="Path 442" d="M958.24,889.206a10.6,10.6,0,1,1-10.6-10.6A10.6,10.6,0,0,1,958.24,889.206Z" transform="translate(-928.605 -871.572)" fill="#3a9fd1"/>
      <path id="Path_443" data-name="Path 443" d="M957.062,892.324a4.4,4.4,0,1,1-4.4-4.4A4.4,4.4,0,0,1,957.062,892.324Z" transform="translate(-932.361 -874.69)" fill="#105e99"/>
      <rect id="Rectangle_242" data-name="Rectangle 242" width="24.508" height="8.797" transform="translate(20.303 13.235)" fill="#105e99"/>
      <circle id="Ellipse_16" data-name="Ellipse 16" cx="13.481" cy="13.481" r="13.481" transform="translate(28.166 9.982) rotate(-21.339)" fill="#80d5ff"/>
      <path id="Path_444" data-name="Path 444" d="M1000.312,889.206a10.6,10.6,0,1,1-10.6-10.6A10.6,10.6,0,0,1,1000.312,889.206Z" transform="translate(-942.684 -871.572)" fill="#3a9fd1"/>
    </g>
    <g id="Group_184" data-name="Group 184" transform="translate(1005.757 514.262)">
      <path id="Path_445" data-name="Path 445" d="M1311.327,719.166s-1.818-6.464-6.316-1.741,2.337,10.714,2.337,10.714,7.631-5,6.885-7.73S1311.327,719.166,1311.327,719.166Z" transform="translate(-1282.409 -715.699)" fill="#b72e48"/>
      <path id="Path_446" data-name="Path 446" d="M1344.918,795.844s6.278-2.383,1.175-6.445-10.465,3.275-10.465,3.275,5.65,7.159,8.309,6.174S1344.918,795.844,1344.918,795.844Z" transform="translate(-1293.167 -739.95)" fill="#b72e48"/>
      <path id="Path_447" data-name="Path 447" d="M1324.216,740.465a2.959,2.959,0,0,1-.132-2,7.489,7.489,0,0,0,.035-1.491,1.325,1.325,0,0,0-.326-.9,1.238,1.238,0,0,0-1.329-.03,3.4,3.4,0,0,1-1.314.482,1.188,1.188,0,0,1-1.024-.594c-.117-.21-.168-.452-.3-.653a1.328,1.328,0,0,0-1.916-.068,3.843,3.843,0,0,0-.97,1.911,10.33,10.33,0,0,0-.591,4.733,31.509,31.509,0,0,0,1.043,3.063l.242-.4,2.534.186a3.128,3.128,0,0,0,.956-.028,4.466,4.466,0,0,0,1.482-.922,10.38,10.38,0,0,0,1.552-1.138,1.529,1.529,0,0,0,.349-1.76C1324.423,740.718,1324.306,740.6,1324.216,740.465Z" transform="translate(-1286.683 -722.102)" fill="#b72e48"/>
      <path id="Path_448" data-name="Path 448" d="M1299.288,740.362a2,2,0,0,1,.473-.935c.323-.273.8-.25,1.2-.386a2.067,2.067,0,0,0,1.235-1.532,6.1,6.1,0,0,0,.006-2.045.617.617,0,0,0-.135-.385.563.563,0,0,0-.4-.116,3.381,3.381,0,0,0-2.277.856.953.953,0,0,1-.423.275c-.352.067-.621-.325-.688-.678-.085-.455-.01-.929-.094-1.384s-.409-.931-.872-.937c-.515-.007-.85.548-.956,1.052a3.311,3.311,0,0,1-.438,1.462.582.582,0,0,1-.255.195c-.365.123-.659-.291-.966-.523a1.433,1.433,0,0,0-1.808.214,2.342,2.342,0,0,0-.581,1.837,6.937,6.937,0,0,0,.522,1.91l1.32,3.482-.26.3A4.434,4.434,0,0,0,1299.288,740.362Z" transform="translate(-1278.668 -721.52)" fill="#b72e48"/>
      <path id="Path_449" data-name="Path 449" d="M1276.895,757.277c-.539-.5-.346-1.54-.968-1.936a1.278,1.278,0,0,0-.939-.094,2.009,2.009,0,0,0-1.713,1.576c-.081.888.7,1.826.258,2.6a2.757,2.757,0,0,1-.768.7,2.329,2.329,0,0,0-.938,2.017,1.572,1.572,0,0,0,1.566,1.4,1.791,1.791,0,0,1,.594-.027c.742.2.392,1.585,1.1,1.894a1.15,1.15,0,0,0,.942-.166q1.657-.836,3.3-1.689l-.2.084a1.8,1.8,0,0,0,.63-1.3,24.065,24.065,0,0,0,.29-2.685c.036-.7-.027-1.54-.628-1.906C1278.671,757.3,1277.535,757.875,1276.895,757.277Z" transform="translate(-1271.813 -728.917)" fill="#b72e48"/>
      <path id="Path_450" data-name="Path 450" d="M1310.485,777.979c-.539-.5-.346-1.54-.968-1.936a1.282,1.282,0,0,0-.939-.094,2.012,2.012,0,0,0-1.714,1.577c-.081.888.7,1.826.258,2.6a2.77,2.77,0,0,1-.768.7,2.327,2.327,0,0,0-.938,2.017,1.572,1.572,0,0,0,1.566,1.4,1.765,1.765,0,0,1,.594-.027c.742.2.392,1.585,1.1,1.893a1.143,1.143,0,0,0,.942-.166q1.658-.834,3.3-1.688l-.2.084a1.8,1.8,0,0,0,.63-1.3,23.919,23.919,0,0,0,.29-2.685c.036-.7-.027-1.54-.628-1.906C1312.262,778,1311.126,778.577,1310.485,777.979Z" transform="translate(-1283.053 -735.845)" fill="#b72e48"/>
      <path id="Path_451" data-name="Path 451" d="M1341.593,740.3c.265-.659,1.148-.87,1.478-1.5a1.3,1.3,0,0,0-.25-1.449,1.964,1.964,0,0,0-1.418-.562c-.554,0-1.188.144-1.6-.222a1.823,1.823,0,0,1-.417-.735,7.436,7.436,0,0,0-1.052-1.836.842.842,0,0,0-.41-.333.9.9,0,0,0-.651.171,5.529,5.529,0,0,0-2.51,2.208,5.473,5.473,0,0,0-.381,1.8q-.1,1.056-.2,2.113a3.326,3.326,0,0,0,.064,1.4l-.754-.359a1.369,1.369,0,0,0,1.36,1.2c.195-.007.385-.057.58-.068a2.974,2.974,0,0,1,1.395.391l1.94.909a4.282,4.282,0,0,0,1.759.531,1.463,1.463,0,0,0,1.447-.937C1342.215,742.124,1341.244,741.17,1341.593,740.3Z" transform="translate(-1292.45 -721.704)" fill="#b72e48"/>
      <path id="Path_452" data-name="Path 452" d="M1345.715,775.019a1.9,1.9,0,0,0-.693-.237,6.446,6.446,0,0,1-1.217-.249,1.222,1.222,0,0,1-.815-.865c-.084-.507.27-1.113-.072-1.5a.668.668,0,0,0-.446-.2,1.78,1.78,0,0,0-1.218.6l-1.627,1.437a1.63,1.63,0,0,0-.538.685,2.053,2.053,0,0,0,.051.945,3.892,3.892,0,0,1-.659,2.873l.21.475a1.482,1.482,0,0,1,.934.267,4.586,4.586,0,0,0,4.612-.346,1.008,1.008,0,0,0,.4-.444c.142-.395-.148-.934.172-1.206a1.163,1.163,0,0,1,.536-.162,1.141,1.141,0,0,0,.372-2.076Z" transform="translate(-1294.122 -734.527)" fill="#b72e48"/>
      <path id="Path_453" data-name="Path 453" d="M1328.409,766.027a1.88,1.88,0,0,0-.693-.237,6.538,6.538,0,0,1-1.216-.249,1.224,1.224,0,0,1-.815-.865c-.084-.507.27-1.113-.072-1.5a.662.662,0,0,0-.446-.2,1.777,1.777,0,0,0-1.218.6l-1.627,1.437a1.635,1.635,0,0,0-.538.686,2.052,2.052,0,0,0,.052.945,3.893,3.893,0,0,1-.659,2.873l.21.475a1.481,1.481,0,0,1,.934.267,4.586,4.586,0,0,0,4.612-.347,1,1,0,0,0,.4-.444c.142-.394-.148-.934.172-1.205a1.158,1.158,0,0,1,.536-.162,1.14,1.14,0,0,0,.372-2.075Z" transform="translate(-1288.331 -731.518)" fill="#b72e48"/>
      <path id="Path_454" data-name="Path 454" d="M1284.867,753.577a1.888,1.888,0,0,0,.217.7,6.5,6.5,0,0,1,.515,1.13,1.223,1.223,0,0,1-.219,1.168c-.361.367-1.059.437-1.167.939a.663.663,0,0,0,.1.48,1.777,1.777,0,0,0,1.2.631l2.119.469a1.626,1.626,0,0,0,.871.031,2.062,2.062,0,0,0,.734-.6,3.892,3.892,0,0,1,2.71-1.16l.26-.449a1.477,1.477,0,0,1-.335-.912,4.585,4.585,0,0,0-3-3.523,1,1,0,0,0-.593-.06c-.4.118-.667.669-1.075.572-.184-.045-.3-.212-.446-.337a1.14,1.14,0,0,0-1.9.921Z" transform="translate(-1275.958 -727.97)" fill="#b72e48"/>
    </g>
    <path id="Path_455" data-name="Path 455" d="M1296.694,796.911c-.514-5.11-1.933-12.531-5.775-18.863a36.761,36.761,0,0,0-4.448-5.569,34.305,34.305,0,0,1-5.3-6.97,31.951,31.951,0,0,1-2.411-6.724c-.3-1.1-.61-2.227-.985-3.337a22.493,22.493,0,0,0-3.385-5.588c-.407-.552-.8-1.089-1.168-1.608l1.833-1.283c.353.5.739,1.027,1.134,1.562a24.426,24.426,0,0,1,3.706,6.2c.4,1.171.715,2.336,1.023,3.461a29.744,29.744,0,0,0,2.232,6.271,32.073,32.073,0,0,0,4.982,6.51,39.015,39.015,0,0,1,4.7,5.914c4.059,6.689,5.551,14.459,6.088,19.8Z" transform="translate(-266.527 -211.9)" fill="#8b383e"/>
    <path id="Path_456" data-name="Path 456" d="M1314.067,782.869c-3.922-6.842-2.339-15.286-.274-22.644l.338-1.2c1.905-6.737,3.875-13.705,1.85-20.11-.208-.657-.457-1.3-.7-1.951a17.683,17.683,0,0,1-1.292-4.586,17.881,17.881,0,0,1,.994-6.63l4.883-17.1,2.151.615-4.882,17.1a15.937,15.937,0,0,0-.918,5.795,15.773,15.773,0,0,0,1.154,4.006c.264.688.527,1.379.749,2.077,2.225,7.044.164,14.339-1.831,21.393l-.337,1.2c-1.94,6.91-3.45,14.8.061,20.927Z" transform="translate(-279.39 -199.077)" fill="#8b383e"/>
    <path id="Path_457" data-name="Path 457" d="M1323.221,794.741l-2.169-.551a45.915,45.915,0,0,1,3.294-8.937,6.722,6.722,0,0,1,1.387-2.051,7.156,7.156,0,0,1,1.666-1.077c.189-.1.379-.2.562-.3a6.4,6.4,0,0,0,2.96-3.83,14.125,14.125,0,0,0,.307-3.773,14.133,14.133,0,0,1,.565-4.922,14.279,14.279,0,0,1,2.839-4.335l12.08-14.184,1.7,1.451-12.081,14.183a8.9,8.9,0,0,0-2.87,7.8,16.021,16.021,0,0,1-.386,4.374,8.656,8.656,0,0,1-4,5.18c-.214.122-.433.236-.652.349a5.351,5.351,0,0,0-1.167.727,4.812,4.812,0,0,0-.9,1.4A43.632,43.632,0,0,0,1323.221,794.741Z" transform="translate(-282.533 -213.175)" fill="#8b383e"/>
    <path id="Path_458" data-name="Path 458" d="M1296.852,787.6c-.321-5.821-.653-11.84.7-17.712.1-.42.2-.843.306-1.27.6-2.445,1.228-4.972.282-7.016a10.453,10.453,0,0,0-1.047-1.659c-.141-.2-.281-.391-.417-.588a18.92,18.92,0,0,1-2.995-14.167,36.3,36.3,0,0,1,.914-3.533,34.07,34.07,0,0,0,.865-3.333c.326-1.732.445-4.174-.837-5.972l1.821-1.3c1.74,2.438,1.621,5.525,1.215,7.685a36.351,36.351,0,0,1-.919,3.553c-.335,1.136-.653,2.211-.862,3.315a16.669,16.669,0,0,0,2.639,12.48c.128.186.26.37.393.553a12.344,12.344,0,0,1,1.261,2.026c1.275,2.757.522,5.8-.142,8.492-.1.414-.2.827-.3,1.235-1.281,5.564-.957,11.423-.645,17.088Z" transform="translate(-273.265 -206.575)" fill="#8b383e"/>
    <path id="Path_459" data-name="Path 459" d="M1327.021,785.074c-8.343-11.048-11.117-23.971-7.42-34.57,1.673-4.794,4.6-8.993,7.422-13.053.714-1.026,1.427-2.05,2.12-3.083,2.95-4.4,6.326-10.246,6.232-16.424l2.237-.033c.1,6.8-3.478,13.032-6.611,17.7-.7,1.044-1.421,2.08-2.142,3.116-2.74,3.937-5.573,8.007-7.145,12.512-3.451,9.89-.8,22.034,7.092,32.484Z" transform="translate(-281.51 -202.176)" fill="#8b383e"/>
    <path id="Path_460" data-name="Path 460" d="M1300.73,781.431c-.431-9.688-.918-20.669,2.438-30.625.345-1.021.728-2.029,1.113-3.037a44.545,44.545,0,0,0,1.774-5.312c1.564-6.431.178-12.919-1.287-19.787-1.159-5.428-2.357-11.04-1.975-16.654l2.233.152c-.361,5.3.8,10.756,1.931,16.034,1.454,6.811,2.958,13.855,1.274,20.782a47.067,47.067,0,0,1-1.858,5.579c-.374.982-.747,1.964-1.083,2.958-3.223,9.559-2.765,19.854-2.323,29.81Z" transform="translate(-275.631 -198.196)" fill="#8b383e"/>
    <rect id="Rectangle_243" data-name="Rectangle 243" width="47.145" height="55.254" transform="translate(1009.872 578.176)" fill="#105e99"/>
    <rect id="Rectangle_244" data-name="Rectangle 244" width="34.459" height="55.254" transform="translate(1012.151 578.176)" fill="#00457a"/>
    <g id="Group_185" data-name="Group 185" transform="translate(1001.927 499.209)">
      <path id="Path_461" data-name="Path 461" d="M1307.651,696.542s-1.819-6.464-6.317-1.741,2.337,10.714,2.337,10.714,7.631-5,6.885-7.73S1307.651,696.542,1307.651,696.542Z" transform="translate(-1277.349 -693.075)" fill="#f24075"/>
      <path id="Path_462" data-name="Path 462" d="M1328.45,705.9a2.951,2.951,0,0,1-.583-1.922,7.5,7.5,0,0,0-.3-1.461,1.324,1.324,0,0,0-.522-.8,1.237,1.237,0,0,0-1.3.272,3.4,3.4,0,0,1-1.17.767,1.188,1.188,0,0,1-1.132-.346c-.162-.177-.266-.4-.439-.568a1.327,1.327,0,0,0-1.882.367,3.842,3.842,0,0,0-.512,2.081,10.339,10.339,0,0,0,.5,4.743,31.569,31.569,0,0,0,1.71,2.747l.146-.44,2.51-.392a3.149,3.149,0,0,0,.925-.244,4.478,4.478,0,0,0,1.234-1.233,10.342,10.342,0,0,0,1.253-1.46,1.527,1.527,0,0,0-.058-1.793C1328.707,706.1,1328.568,706.014,1328.45,705.9Z" transform="translate(-1284.292 -695.921)" fill="#f24075"/>
      <path id="Path_463" data-name="Path 463" d="M1308.83,750.393c-.422-.141-.641-.59-.87-.971a4.808,4.808,0,0,0-.58-.777.855.855,0,0,0-.528-.331c-.3-.025-.551.245-.691.517a2.218,2.218,0,0,1-.479.772.77.77,0,0,1-.761.107c-.144-.06-.267-.164-.414-.214a.862.862,0,0,0-1.007.732,2.5,2.5,0,0,0,.269,1.365,6.709,6.709,0,0,0,1.594,2.656,20.373,20.373,0,0,0,1.759,1.148l-.035-.3,1.371-.919a2.023,2.023,0,0,0,.477-.4,2.9,2.9,0,0,0,.389-1.064,6.7,6.7,0,0,0,.337-1.2.992.992,0,0,0-.526-1.039C1309.036,750.439,1308.93,750.426,1308.83,750.393Z" transform="translate(-1278.579 -711.558)" fill="#f24075"/>
      <path id="Path_464" data-name="Path 464" d="M1324.947,792.2c-.423-.141-.641-.59-.87-.971a4.875,4.875,0,0,0-.58-.777.862.862,0,0,0-.527-.331c-.3-.024-.551.246-.691.518a2.195,2.195,0,0,1-.479.772.77.77,0,0,1-.761.107c-.144-.06-.267-.164-.414-.214-.446-.152-.92.269-1.007.732a2.5,2.5,0,0,0,.269,1.365,6.708,6.708,0,0,0,1.594,2.656,20.266,20.266,0,0,0,1.759,1.148l-.034-.3,1.37-.919a2.019,2.019,0,0,0,.477-.4,2.9,2.9,0,0,0,.389-1.064,6.649,6.649,0,0,0,.337-1.2.993.993,0,0,0-.525-1.04C1325.153,792.249,1325.047,792.236,1324.947,792.2Z" transform="translate(-1283.972 -725.549)" fill="#f24075"/>
      <path id="Path_465" data-name="Path 465" d="M1329.6,745.068c-.422-.141-.641-.59-.87-.971a4.845,4.845,0,0,0-.579-.776.862.862,0,0,0-.528-.331c-.3-.025-.551.246-.691.517a2.213,2.213,0,0,1-.478.772.77.77,0,0,1-.761.107c-.144-.06-.267-.163-.415-.214-.445-.151-.92.27-1.007.732a2.5,2.5,0,0,0,.269,1.365,6.716,6.716,0,0,0,1.594,2.656,20.319,20.319,0,0,0,1.759,1.148l-.034-.3,1.37-.92a2.025,2.025,0,0,0,.477-.4,2.9,2.9,0,0,0,.389-1.065,6.67,6.67,0,0,0,.337-1.2.992.992,0,0,0-.526-1.039C1329.8,745.114,1329.7,745.1,1329.6,745.068Z" transform="translate(-1285.528 -709.777)" fill="#f24075"/>
      <path id="Path_466" data-name="Path 466" d="M1316.743,731.589c-.422-.14-.641-.589-.87-.971a4.915,4.915,0,0,0-.58-.777.864.864,0,0,0-.528-.331c-.3-.024-.551.246-.692.518a2.2,2.2,0,0,1-.478.772.771.771,0,0,1-.761.107c-.143-.061-.267-.164-.414-.214-.446-.152-.919.27-1.007.732a2.5,2.5,0,0,0,.269,1.365,6.713,6.713,0,0,0,1.593,2.656,20.354,20.354,0,0,0,1.76,1.148l-.035-.3,1.37-.919a2.025,2.025,0,0,0,.478-.4,2.912,2.912,0,0,0,.389-1.065,6.751,6.751,0,0,0,.337-1.2.993.993,0,0,0-.526-1.039C1316.95,731.635,1316.844,731.622,1316.743,731.589Z" transform="translate(-1281.227 -705.266)" fill="#f24075"/>
      <path id="Path_467" data-name="Path 467" d="M1293.34,724.991a1.991,1.991,0,0,1-.735-.747,3.446,3.446,0,0,1,.017-1.256,2.064,2.064,0,0,0-1.056-1.661,6.1,6.1,0,0,0-1.936-.661.618.618,0,0,0-.409.005.563.563,0,0,0-.237.337,3.38,3.38,0,0,0,.083,2.431.954.954,0,0,1,.125.489c-.049.355-.508.485-.863.435-.458-.065-.883-.287-1.342-.354a1.043,1.043,0,0,0-1.166.527c-.171.486.248.98.691,1.243a3.3,3.3,0,0,1,1.245.882.58.58,0,0,1,.1.305c0,.385-.486.531-.8.747a1.434,1.434,0,0,0-.375,1.782,2.343,2.343,0,0,0,1.553,1.138,6.932,6.932,0,0,0,1.977.116l3.721-.137.2.342A4.434,4.434,0,0,0,1293.34,724.991Z" transform="translate(-1272.658 -702.297)" fill="#f24075"/>
      <path id="Path_468" data-name="Path 468" d="M1343.458,737.985a1.782,1.782,0,0,1,.895-.27c.375.041.65.361.985.536a1.84,1.84,0,0,0,1.749-.142,5.436,5.436,0,0,0,1.326-1.253.548.548,0,0,0,.166-.325.5.5,0,0,0-.167-.327,3.014,3.014,0,0,0-1.953-.946.849.849,0,0,1-.438-.1c-.26-.187-.172-.6.016-.862.241-.335.594-.578.836-.912a.931.931,0,0,0,.07-1.14c-.312-.337-.877-.212-1.268.029a2.941,2.941,0,0,1-1.214.616.517.517,0,0,1-.284-.045c-.3-.16-.217-.6-.255-.946a1.278,1.278,0,0,0-1.25-1.037,2.089,2.089,0,0,0-1.544.753,6.208,6.208,0,0,0-.914,1.512l-1.439,2.994-.353.016A3.956,3.956,0,0,0,1343.458,737.985Z" transform="translate(-1290.272 -705.717)" fill="#f24075"/>
      <path id="Path_469" data-name="Path 469" d="M1296.5,795.49a1.887,1.887,0,0,1-.7-.707,3.249,3.249,0,0,1,.016-1.188,1.954,1.954,0,0,0-1-1.571,5.769,5.769,0,0,0-1.832-.625.577.577,0,0,0-.386,0,.532.532,0,0,0-.223.319,3.2,3.2,0,0,0,.077,2.3.894.894,0,0,1,.119.463c-.046.337-.48.459-.816.411-.434-.061-.836-.271-1.269-.335a.989.989,0,0,0-1.1.5c-.161.459.235.928.654,1.176a3.121,3.121,0,0,1,1.178.834.549.549,0,0,1,.1.288c0,.365-.46.5-.761.707a1.356,1.356,0,0,0-.355,1.685,2.217,2.217,0,0,0,1.47,1.077,6.563,6.563,0,0,0,1.87.11l3.521-.13.19.323A4.194,4.194,0,0,0,1296.5,795.49Z" transform="translate(-1273.852 -725.966)" fill="#f24075"/>
      <path id="Path_470" data-name="Path 470" d="M1272.159,739.554c-.4-.618.034-1.579-.475-2.112a1.281,1.281,0,0,0-.889-.317,2.011,2.011,0,0,0-2.042,1.119c-.292.844.24,1.941-.375,2.587a2.741,2.741,0,0,1-.914.5,2.328,2.328,0,0,0-1.4,1.733,1.572,1.572,0,0,0,1.184,1.737,1.771,1.771,0,0,1,.583.116c.673.368,0,1.633.608,2.1a1.15,1.15,0,0,0,.955.065q1.809-.413,3.613-.846l-.214.034a1.8,1.8,0,0,0,.923-1.107,24.075,24.075,0,0,0,.926-2.536,2.021,2.021,0,0,0-.152-2C1273.878,740,1272.637,740.288,1272.159,739.554Z" transform="translate(-1266.057 -707.814)" fill="#f24075"/>
      <path id="Path_471" data-name="Path 471" d="M1315.759,765.961c-.4-.618.034-1.579-.475-2.112a1.281,1.281,0,0,0-.889-.317,2.01,2.01,0,0,0-2.042,1.119c-.292.843.24,1.94-.375,2.587a2.762,2.762,0,0,1-.914.5,2.326,2.326,0,0,0-1.4,1.733,1.572,1.572,0,0,0,1.184,1.737,1.775,1.775,0,0,1,.583.116c.673.368,0,1.633.608,2.1a1.151,1.151,0,0,0,.955.065q1.809-.412,3.613-.846l-.214.034a1.8,1.8,0,0,0,.923-1.107,24.1,24.1,0,0,0,.926-2.536,2.019,2.019,0,0,0-.152-2C1317.478,766.407,1316.237,766.7,1315.759,765.961Z" transform="translate(-1280.647 -716.651)" fill="#f24075"/>
      <path id="Path_472" data-name="Path 472" d="M1346.338,712.844c-.39-.594-.058-1.439-.386-2.07a1.3,1.3,0,0,0-1.331-.622,1.962,1.962,0,0,0-1.272.843c-.32.452-.562,1.057-1.1,1.189a1.822,1.822,0,0,1-.842-.078,7.464,7.464,0,0,0-2.108-.186.845.845,0,0,0-.507.146.9.9,0,0,0-.232.631,4.137,4.137,0,0,0,1.64,4.666l1.619,1.374a3.35,3.35,0,0,0,1.185.747l-.726.412a1.369,1.369,0,0,0,1.766-.428c.106-.163.174-.348.276-.514a2.975,2.975,0,0,1,1.118-.921l1.855-1.073a4.279,4.279,0,0,0,1.441-1.139,1.463,1.463,0,0,0,.057-1.723C1348.191,713.377,1346.853,713.629,1346.338,712.844Z" transform="translate(-1290.292 -698.784)" fill="#f24075"/>
      <path id="Path_473" data-name="Path 473" d="M1288.612,767.218c-.314-.594-.047-1.439-.311-2.07a.994.994,0,0,0-1.073-.622,1.6,1.6,0,0,0-1.024.843c-.258.452-.453,1.057-.887,1.189a1.2,1.2,0,0,1-.678-.078,4.892,4.892,0,0,0-1.7-.186.591.591,0,0,0-.409.146,1.036,1.036,0,0,0-.187.632,6.748,6.748,0,0,0,.3,3.322,5.2,5.2,0,0,0,1.017,1.344l1.3,1.374a2.7,2.7,0,0,0,.955.746l-.585.413a.981.981,0,0,0,1.423-.428c.085-.164.14-.348.222-.514a2.6,2.6,0,0,1,.9-.921l1.495-1.073a3.7,3.7,0,0,0,1.162-1.14,1.753,1.753,0,0,0,.046-1.723C1290.106,767.751,1289.027,768,1288.612,767.218Z" transform="translate(-1271.486 -716.979)" fill="#f24075"/>
      <path id="Path_474" data-name="Path 474" d="M1338.416,776.7c-.314-.594-.047-1.439-.311-2.07a.994.994,0,0,0-1.073-.622,1.605,1.605,0,0,0-1.025.843c-.258.452-.452,1.057-.887,1.19a1.2,1.2,0,0,1-.678-.079,4.9,4.9,0,0,0-1.7-.186.591.591,0,0,0-.409.146,1.036,1.036,0,0,0-.187.631,6.76,6.76,0,0,0,.3,3.322,5.194,5.194,0,0,0,1.018,1.344l1.3,1.374a2.683,2.683,0,0,0,.955.746l-.585.414a.982.982,0,0,0,1.423-.428c.085-.163.141-.348.222-.514a2.594,2.594,0,0,1,.9-.921l1.5-1.073a3.71,3.71,0,0,0,1.162-1.14,1.754,1.754,0,0,0,.046-1.723C1339.91,777.229,1338.831,777.481,1338.416,776.7Z" transform="translate(-1288.151 -720.151)" fill="#f24075"/>
      <path id="Path_475" data-name="Path 475" d="M1364.723,748.887a1.9,1.9,0,0,0-.693-.237,6.424,6.424,0,0,1-1.216-.249,1.223,1.223,0,0,1-.815-.865c-.084-.507.27-1.113-.072-1.5a.665.665,0,0,0-.446-.2,1.775,1.775,0,0,0-1.218.6l-1.627,1.437a1.632,1.632,0,0,0-.537.685,2.045,2.045,0,0,0,.051.945,3.9,3.9,0,0,1-.659,2.874l.21.474a1.482,1.482,0,0,1,.934.267,4.587,4.587,0,0,0,4.612-.346,1.008,1.008,0,0,0,.4-.445c.142-.394-.148-.934.172-1.206a1.167,1.167,0,0,1,.536-.162,1.14,1.14,0,0,0,.372-2.076Z" transform="translate(-1296.653 -710.729)" fill="#f24075"/>
      <path id="Path_476" data-name="Path 476" d="M1344.8,757.227a1.892,1.892,0,0,0-.644.349,6.469,6.469,0,0,1-1.008.725,1.225,1.225,0,0,1-1.188.013c-.429-.282-.634-.953-1.148-.962a.664.664,0,0,0-.451.19,1.778,1.778,0,0,0-.385,1.3l-.047,2.17a1.622,1.622,0,0,0,.139.86,2.06,2.06,0,0,0,.729.6,3.891,3.891,0,0,1,1.666,2.432l.491.168a1.483,1.483,0,0,1,.829-.506,4.583,4.583,0,0,0,2.873-3.624,1,1,0,0,0-.057-.594c-.193-.372-.786-.524-.769-.943a1.159,1.159,0,0,1,.244-.5,1.14,1.14,0,0,0-1.273-1.681Z" transform="translate(-1290.775 -714.53)" fill="#f24075"/>
    </g>
    <g id="Group_190" data-name="Group 190" transform="translate(871.966 625.216)">
      <g id="Group_186" data-name="Group 186">
        <rect id="Rectangle_245" data-name="Rectangle 245" width="13.726" height="24.073" fill="#b2b2b0"/>
        <rect id="Rectangle_246" data-name="Rectangle 246" width="13.726" height="24.073" transform="translate(37.376)" fill="#b2b2b0"/>
        <rect id="Rectangle_247" data-name="Rectangle 247" width="35.899" height="8.869" transform="translate(6.968 7.181)" fill="#b2b2b0"/>
      </g>
      <g id="Group_189" data-name="Group 189" transform="translate(72.356 0.532)">
        <g id="Group_187" data-name="Group 187">
          <path id="Path_477" data-name="Path 477" d="M1179.483,926.733a26.24,26.24,0,1,1,52.48,0c0,14.493-11.747,18.866-26.241,18.866S1179.483,941.227,1179.483,926.733Z" transform="translate(-1179.483 -889.02)" fill="#f8b134"/>
          <path id="Path_478" data-name="Path 478" d="M1209.3,883.251a19.12,19.12,0,1,0,19.122,19.122A19.121,19.121,0,0,0,1209.3,883.251Zm0,32.229a13.109,13.109,0,1,1,13.109-13.107A13.111,13.111,0,0,1,1209.3,915.48Z" transform="translate(-1183.064 -883.251)" fill="#f8b134"/>
        </g>
        <g id="Group_188" data-name="Group 188" transform="translate(15.665 27.285)" opacity="0.3">
          <path id="Path_479" data-name="Path 479" d="M1206.312,935.564v2.794h-3.286v-14.1h3.286v7.448l3.384-3.59h3.724l-3.763,3.934,3.875,6.308h-3.894l-2.223-3.952Z" transform="translate(-1203.026 -924.258)" fill="#fff"/>
          <path id="Path_480" data-name="Path 480" d="M1229.449,939.308c0,2.908-2.242,4.753-5.548,4.753a8.3,8.3,0,0,1-4.561-1.351l1.14-2.222a5.687,5.687,0,0,0,3.174,1.027c1.577,0,2.528-.839,2.528-2.111v-1.082a3.546,3.546,0,0,1-2.947,1.366c-2.584,0-4.408-1.974-4.408-4.959,0-2.907,1.767-4.845,4.333-4.845a3.563,3.563,0,0,1,3.022,1.368V930h3.267Zm-3.267-4.484a2.215,2.215,0,0,0-2.13-2.507,2.532,2.532,0,1,0,2.13,2.507Z" transform="translate(-1208.313 -926.141)" fill="#fff"/>
        </g>
      </g>
    </g>
    <g id="Group_196" data-name="Group 196" transform="translate(605.549 628.66)">
      <g id="Group_191" data-name="Group 191" transform="translate(66.16 18.373)">
        <rect id="Rectangle_248" data-name="Rectangle 248" width="13.726" height="24.073" fill="#b2b2b0"/>
        <rect id="Rectangle_249" data-name="Rectangle 249" width="13.726" height="24.073" transform="translate(37.376)" fill="#b2b2b0"/>
        <rect id="Rectangle_250" data-name="Rectangle 250" width="35.899" height="8.869" transform="translate(6.968 7.181)" fill="#b2b2b0"/>
      </g>
      <g id="Group_195" data-name="Group 195" transform="translate(0)">
        <g id="Group_193" data-name="Group 193">
          <g id="Group_192" data-name="Group 192">
            <path id="Path_481" data-name="Path 481" d="M670.339,931.108a26.24,26.24,0,1,1,52.48,0c0,14.491-11.747,18.863-26.241,18.863S670.339,945.6,670.339,931.108Z" transform="translate(-670.339 -893.396)" fill="#5ad6f4"/>
            <path id="Path_482" data-name="Path 482" d="M700.16,887.627a19.12,19.12,0,1,0,19.122,19.121A19.119,19.119,0,0,0,700.16,887.627Zm0,32.229a13.109,13.109,0,1,1,13.109-13.108A13.11,13.11,0,0,1,700.16,919.856Z" transform="translate(-673.92 -887.627)" fill="#5ad6f4"/>
          </g>
        </g>
        <g id="Group_194" data-name="Group 194" transform="translate(15.727 25.433)" opacity="0.3">
          <path id="Path_483" data-name="Path 483" d="M697.261,937.16v2.791h-3.286v-14.1h3.286V933.3l3.384-3.593h3.724l-3.763,3.934,3.875,6.308h-3.894L698.365,936Z" transform="translate(-693.975 -925.851)" fill="#fff"/>
          <path id="Path_484" data-name="Path 484" d="M720.4,940.9c0,2.908-2.242,4.751-5.549,4.751a8.3,8.3,0,0,1-4.561-1.348l1.14-2.225a5.685,5.685,0,0,0,3.174,1.027c1.577,0,2.528-.836,2.528-2.108v-1.084a3.548,3.548,0,0,1-2.946,1.369c-2.584,0-4.409-1.977-4.409-4.962,0-2.908,1.767-4.845,4.334-4.845a3.561,3.561,0,0,1,3.021,1.369v-1.255H720.4Zm-3.268-4.484A2.215,2.215,0,0,0,715,933.91a2.525,2.525,0,0,0,0,5A2.219,2.219,0,0,0,717.13,936.419Z" transform="translate(-699.262 -927.734)" fill="#fff"/>
        </g>
      </g>
    </g>
  </g>
</svg>
