<svg xmlns="http://www.w3.org/2000/svg" width="27.941" height="23.729" viewBox="0 0 27.941 23.729">
  <g id="Group_1008" data-name="Group 1008" transform="translate(-704.06 -8725)">
    <path id="Path_1353" data-name="Path 1353" d="M114.478,10.379a1.3,1.3,0,0,0-1.836,0l-.778.777a1.3,1.3,0,0,0,0,1.836l8.867,8.867-8.877,8.877a1.3,1.3,0,0,0,0,1.836l.778.777a1.3,1.3,0,0,0,1.836,0l10.57-10.569a1.31,1.31,0,0,0,0-1.842Z" transform="translate(606.584 8715)" fill="#f95c21"/>
    <path id="Path_1354" data-name="Path 1354" d="M114.478,10.379a1.3,1.3,0,0,0-1.836,0l-.778.777a1.3,1.3,0,0,0,0,1.836l8.867,8.867-8.877,8.877a1.3,1.3,0,0,0,0,1.836l.778.777a1.3,1.3,0,0,0,1.836,0l10.57-10.569a1.31,1.31,0,0,0,0-1.842Z" transform="translate(592.584 8715)" fill="#ff6f00"/>
  </g>
</svg>
