<svg xmlns="http://www.w3.org/2000/svg" xmlns:xlink="http://www.w3.org/1999/xlink" width="27.29" height="28.694" viewBox="0 0 27.29 28.694">
  <defs>
    <clipPath id="clip-path">
      <rect id="Rectangle_42" data-name="Rectangle 42" width="27.29" height="28.694" fill="#ff48aa" stroke="#ff48aa" stroke-width="0.2"/>
    </clipPath>
  </defs>
  <g id="Group_62" data-name="Group 62" transform="translate(-499.979 -588.5)">
    <g id="Group_61" data-name="Group 61" transform="translate(499.978 588.5)">
      <g id="Group_60" data-name="Group 60" clip-path="url(#clip-path)">
        <path id="Path_173" data-name="Path 173" d="M526.524,595.672a10.727,10.727,0,0,0-5.362-5.818,13.692,13.692,0,0,0-7.79-1.235,12.986,12.986,0,0,0-5.51,2.029,12.278,12.278,0,0,0-5.477,9.016,6.894,6.894,0,0,0,.108,1.588,4.119,4.119,0,0,1,.062,1.425h0c-.02.082-.25.849-2,2.581a1.692,1.692,0,0,0,.815,2.853l.674.151.186.041c.011,1.371.029,2.985.055,3.287a2.355,2.355,0,0,0,.895,1.705,4.076,4.076,0,0,0,3.189.539c1.046-.169,1.669.1,1.85.788.016.136.064.556.095,1.014a1.675,1.675,0,0,0,1.668,1.559H520.8a1.674,1.674,0,0,0,1.672-1.673v-2.992c0-2.11.332-3.545.986-4.266a14.807,14.807,0,0,0,3.352-5.81,10.528,10.528,0,0,0-.283-6.781Zm-1.334,6.323a13.139,13.139,0,0,1-2.979,5.138c-.957,1.055-1.422,2.82-1.422,5.4v2.984h-10.8c-.041-.6-.107-1.126-.109-1.149l-.006-.042-.01-.042a2.69,2.69,0,0,0-1.208-1.729,3.663,3.663,0,0,0-2.555-.377,2.623,2.623,0,0,1-1.887-.2.678.678,0,0,1-.255-.521c-.012-.146-.032-1.107-.049-3.332a1.457,1.457,0,0,0-1.141-1.416l-.363-.081-.663-.148h-.006l-.005-.012,0-.005a8.853,8.853,0,0,0,2.448-3.368,5.318,5.318,0,0,0-.029-2.078,5.59,5.59,0,0,1-.1-1.2,10.09,10.09,0,0,1,1.487-4.394,11.054,11.054,0,0,1,3.247-3.367,11.31,11.31,0,0,1,4.794-1.76,12,12,0,0,1,6.826,1.073,9.079,9.079,0,0,1,4.541,4.915,8.878,8.878,0,0,1,.235,5.72Zm0,0" transform="translate(-500 -588.5)" fill="#ff48aa" stroke="#ff48aa" stroke-width="0.2"/>
      </g>
    </g>
    <path id="Path_174" data-name="Path 174" d="M521.964,598.405a3.977,3.977,0,0,0-4.26.822,4,4,0,0,0-4.266-.817,4.448,4.448,0,0,0-2.476,2.536,4.9,4.9,0,0,0,.129,3.851c1.3,2.768,3.967,5.092,5.977,6.555a1.083,1.083,0,0,0,1.276,0,18.1,18.1,0,0,0,5.966-6.56,4.9,4.9,0,0,0,.129-3.851,4.45,4.45,0,0,0-2.476-2.536Zm.824,5.672a15.837,15.837,0,0,1-5.082,5.656,15.859,15.859,0,0,1-5.093-5.65,3.214,3.214,0,0,1-.086-2.524,2.783,2.783,0,0,1,1.544-1.591,2.293,2.293,0,0,1,.874-.179,2.7,2.7,0,0,1,1.95,1,1.084,1.084,0,0,0,.811.364h0a1.086,1.086,0,0,0,.811-.367,2.436,2.436,0,0,1,2.812-.821,2.782,2.782,0,0,1,1.544,1.592,3.213,3.213,0,0,1-.086,2.523Zm0,0" transform="translate(-3.01 -2.713)" fill="#ff48aa" stroke="#ff48aa" stroke-width="0.2"/>
  </g>
</svg>
