<svg id="Group_755" data-name="Group 755" xmlns="http://www.w3.org/2000/svg" width="211.953" height="71" viewBox="0 0 211.953 71">
  <g id="Path_824" data-name="Path 824" transform="translate(-1625.93 -6293.262)" fill="none" stroke-miterlimit="10" fill-rule="evenodd">
    <path d="M1824.81,6293.262H1638.874c-11.1,0-12.944,3.844-12.944,12.98v45.119c0,9.134,3.8,12.9,12.931,12.9H1824.81c9.138,0,13.074-3.774,13.074-12.912v-45.108C1837.883,6297.106,1833.948,6293.262,1824.81,6293.262Z" stroke="none"/>
    <path d="M 1638.874145507813 6296.26220703125 C 1634.383178710938 6296.26220703125 1631.72021484375 6296.912109375 1630.493896484375 6298.30712890625 C 1629.397827148438 6299.5537109375 1628.93017578125 6301.9267578125 1628.93017578125 6306.24267578125 L 1628.93017578125 6351.361328125 C 1628.93017578125 6355.12939453125 1629.636352539063 6357.66455078125 1631.0888671875 6359.11181640625 C 1632.541381835938 6360.55859375 1635.083740234375 6361.26220703125 1638.861083984375 6361.26220703125 L 1824.809814453125 6361.26220703125 C 1828.611328125 6361.26220703125 1831.183227539063 6360.55224609375 1832.67236328125 6359.09130859375 C 1834.16015625 6357.6318359375 1834.883422851563 6355.099609375 1834.883422851563 6351.3505859375 L 1834.883422851563 6306.24267578125 C 1834.883422851563 6302.482421875 1834.157348632813 6299.9365234375 1832.66357421875 6298.458984375 C 1831.169067382813 6296.98095703125 1828.60009765625 6296.26220703125 1824.809814453125 6296.26220703125 L 1638.874145507813 6296.26220703125 M 1638.874145507813 6293.26220703125 L 1824.809814453125 6293.26220703125 C 1833.947509765625 6293.26220703125 1837.883422851563 6297.10595703125 1837.883422851563 6306.24267578125 L 1837.883422851563 6351.3505859375 C 1837.883422851563 6360.48779296875 1833.947509765625 6364.26220703125 1824.809814453125 6364.26220703125 L 1638.861083984375 6364.26220703125 C 1629.730346679688 6364.26220703125 1625.93017578125 6360.49560546875 1625.93017578125 6351.361328125 L 1625.93017578125 6306.24267578125 C 1625.93017578125 6297.10595703125 1627.777099609375 6293.26220703125 1638.874145507813 6293.26220703125 Z" stroke="none" fill="#fff"/>
  </g>
  <g id="Group_752" data-name="Group 752" transform="translate(60.094 33.056)">
    <path id="Path_825" data-name="Path 825" d="M1706.766,6321.17a6.863,6.863,0,0,0-7.015,7.012,6.964,6.964,0,0,0,7.015,7.015,6.862,6.862,0,0,0,7.013-7.015A6.765,6.765,0,0,0,1706.766,6321.17Zm0,11.09a4.254,4.254,0,0,1,0-8.481,3.951,3.951,0,0,1,3.915,4.241A4.048,4.048,0,0,1,1706.766,6332.261Zm-15.169-11.09a6.862,6.862,0,0,0-7.015,7.012,6.964,6.964,0,0,0,7.015,7.015,6.862,6.862,0,0,0,7.013-7.015A6.766,6.766,0,0,0,1691.6,6321.17Zm0,11.09a4.254,4.254,0,0,1,0-8.481,3.951,3.951,0,0,1,3.914,4.241A4.048,4.048,0,0,1,1691.6,6332.261Zm-18.105-8.971v2.936h7.013a6.167,6.167,0,0,1-1.63,3.752,7.226,7.226,0,0,1-5.383,2.119,7.594,7.594,0,0,1-7.666-7.829,7.693,7.693,0,0,1,7.666-7.828,8.091,8.091,0,0,1,5.383,2.12l2.12-2.12a10.448,10.448,0,0,0-7.339-2.937,10.766,10.766,0,1,0,0,21.53,9.381,9.381,0,0,0,7.5-3.1,9.815,9.815,0,0,0,2.61-6.848,6.1,6.1,0,0,0-.163-1.8Zm74.051,2.284a6.338,6.338,0,0,0-5.873-4.4c-3.588,0-6.523,2.772-6.523,7.012A6.826,6.826,0,0,0,1742,6335.2a6.694,6.694,0,0,0,5.71-3.1l-2.285-1.629a3.974,3.974,0,0,1-3.425,1.956,3.539,3.539,0,0,1-3.425-2.12l9.3-3.915-.327-.815Zm-9.461,2.284a3.963,3.963,0,0,1,3.588-4.078,2.881,2.881,0,0,1,2.61,1.468l-6.2,2.61Zm-7.666,6.687h3.1v-20.39h-3.1Zm-4.893-11.906a5.36,5.36,0,0,0-3.751-1.632,7.01,7.01,0,0,0-6.688,7.014,6.755,6.755,0,0,0,6.688,6.85,4.677,4.677,0,0,0,3.588-1.631h.163v.98c0,2.609-1.468,4.076-3.751,4.076a3.621,3.621,0,0,1-3.425-2.446l-2.61,1.142a6.728,6.728,0,0,0,6.2,4.077c3.588,0,6.525-2.119,6.525-7.175v-12.4h-2.937v1.143Zm-3.588,9.623a4.254,4.254,0,0,1,0-8.481c2.12,0,3.751,1.794,3.751,4.241S1724.054,6332.261,1721.935,6332.261Zm39.8-18.106h-7.341v20.39h3.1v-7.667h4.241a6.369,6.369,0,1,0,0-12.723Zm.163,9.788h-4.4v-7.015h4.4a3.583,3.583,0,0,1,3.588,3.426,3.733,3.733,0,0,1-3.588,3.589Zm18.757-2.937c-2.283,0-4.568.979-5.383,3.1l2.773,1.141a2.883,2.883,0,0,1,2.773-1.468,3.066,3.066,0,0,1,3.261,2.61v.164a6.451,6.451,0,0,0-3.1-.816c-2.937,0-5.873,1.631-5.873,4.568,0,2.771,2.447,4.565,5.056,4.565a4.588,4.588,0,0,0,3.915-1.955h.163v1.63h2.936v-7.831a6.174,6.174,0,0,0-6.525-5.707Zm-.326,11.254c-.978,0-2.447-.49-2.447-1.792,0-1.633,1.8-2.123,3.262-2.123a6.273,6.273,0,0,1,2.773.655A3.8,3.8,0,0,1,1780.327,6332.261Zm17.127-10.765-3.426,8.809h-.163l-3.588-8.809h-3.262l5.383,12.4-3.1,6.851h3.1l8.318-19.248Zm-27.4,13.049h3.1v-20.39h-3.1Z" transform="translate(-1662.726 -6313.503)" fill="#fff"/>
  </g>
  <g id="Group_753" data-name="Group 753" transform="translate(60.353 16.69)">
    <path id="Path_826" data-name="Path 826" d="M1668.315,6308.39h5.081a3.39,3.39,0,0,1,.073.419,4.535,4.535,0,0,1,.028.491,5.757,5.757,0,0,1-.3,1.884,4.378,4.378,0,0,1-.955,1.577,4.8,4.8,0,0,1-1.664,1.144,5.7,5.7,0,0,1-2.216.405,5.592,5.592,0,0,1-2.128-.405,5.277,5.277,0,0,1-1.738-1.129,5.419,5.419,0,0,1-1.173-1.716,5.6,5.6,0,0,1,0-4.327,5.424,5.424,0,0,1,1.173-1.717,5.314,5.314,0,0,1,1.738-1.128,5.592,5.592,0,0,1,2.128-.405,5.533,5.533,0,0,1,2.252.435,5.013,5.013,0,0,1,1.7,1.2l-1.346,1.318a3.336,3.336,0,0,0-2.621-1.1,3.629,3.629,0,0,0-1.346.253,3.335,3.335,0,0,0-1.875,1.839,3.966,3.966,0,0,0,0,2.94,3.351,3.351,0,0,0,.768,1.121,3.462,3.462,0,0,0,1.122.719,3.993,3.993,0,0,0,2.758.014,3.321,3.321,0,0,0,.977-.616,2.378,2.378,0,0,0,.5-.658,3.789,3.789,0,0,0,.325-.893h-3.257Z" transform="translate(-1662.885 -6303.482)" fill="#fff"/>
    <path id="Path_827" data-name="Path 827" d="M1672.331,6305.477v2.4h4.155v1.854h-4.155v2.4h4.619v1.854h-6.574v-10.368h6.574v1.853Z" transform="translate(-1658.142 -6303.394)" fill="#fff"/>
    <path id="Path_828" data-name="Path 828" d="M1677.971,6313.992v-8.515h-2.9v-1.853h7.746v1.853h-2.9v8.515Z" transform="translate(-1655.167 -6303.394)" fill="#fff"/>
    <path id="Path_829" data-name="Path 829" d="M1682.619,6303.624h1.955v10.368h-1.955Z" transform="translate(-1650.39 -6303.394)" fill="#fff"/>
    <path id="Path_830" data-name="Path 830" d="M1687.562,6313.992v-8.515h-2.9v-1.853h7.744v1.853h-2.9v8.515Z" transform="translate(-1649.094 -6303.394)" fill="#fff"/>
    <path id="Path_831" data-name="Path 831" d="M1697.138,6314.311a5.491,5.491,0,0,1-2.151-.418,5.249,5.249,0,0,1-2.852-2.875,5.653,5.653,0,0,1,0-4.243,5.338,5.338,0,0,1,1.137-1.724,5.263,5.263,0,0,1,1.715-1.149,5.708,5.708,0,0,1,4.3,0,5.291,5.291,0,0,1,1.717,1.149,5.389,5.389,0,0,1,1.137,1.724,5.672,5.672,0,0,1,0,4.243,5.243,5.243,0,0,1-2.853,2.875A5.481,5.481,0,0,1,1697.138,6314.311Zm0-1.852a3.491,3.491,0,0,0,1.354-.262,3.385,3.385,0,0,0,1.1-.724,3.281,3.281,0,0,0,.74-1.121,4.087,4.087,0,0,0,0-2.91,3.3,3.3,0,0,0-.74-1.122,3.36,3.36,0,0,0-1.1-.724,3.627,3.627,0,0,0-2.708,0,3.371,3.371,0,0,0-1.1.724,3.277,3.277,0,0,0-.738,1.122,4.087,4.087,0,0,0,0,2.91,3.262,3.262,0,0,0,.738,1.121,3.4,3.4,0,0,0,1.1.724A3.484,3.484,0,0,0,1697.138,6312.459Z" transform="translate(-1644.626 -6303.482)" fill="#fff"/>
    <path id="Path_832" data-name="Path 832" d="M1699.321,6303.624h2.272l4.171,6.95h.114l-.114-2v-4.951h1.94v10.368h-2.056l-4.4-7.342h-.116l.116,2v5.343h-1.925Z" transform="translate(-1639.815 -6303.394)" fill="#fff"/>
  </g>
  <g id="Group_754" data-name="Group 754" transform="translate(17.77 14.651)">
    <path id="Path_833" data-name="Path 833" d="M1663.478,6316.83l-25.371-14.6,20.041,19.937Z" transform="translate(-1635.99 -6302.234)" fill="#fff" fill-rule="evenodd"/>
    <path id="Path_834" data-name="Path 834" d="M1636.913,6302.325c-.1.176.137.379.137.6v41.307c0,.131-.273.253-.237.367l21.223-21.262Z" transform="translate(-1636.811 -6302.176)" fill="#fff" fill-rule="evenodd"/>
    <path id="Path_835" data-name="Path 835" d="M1658.448,6315.939l-20.808,20.846a1.259,1.259,0,0,0,.181-.085l26.291-15.125Z" transform="translate(-1636.286 -6293.555)" fill="#fff" fill-rule="evenodd"/>
    <path id="Path_836" data-name="Path 836" d="M1665.177,6316.544l-8.39-4.825-5.657,5.668,6,5.963,8.05-4.631A1.255,1.255,0,0,0,1665.177,6316.544Z" transform="translate(-1627.745 -6296.227)" fill="#fff" fill-rule="evenodd"/>
  </g>
</svg>
