<svg id="Group_760" data-name="Group 760" xmlns="http://www.w3.org/2000/svg" width="211.953" height="71" viewBox="0 0 211.953 71">
  <g id="Group_758" data-name="Group 758">
    <g id="Path_837" data-name="Path 837" transform="translate(-1626.206 -6360.263)" fill="none" stroke-miterlimit="10" fill-rule="evenodd">
      <path d="M1825.085,6360.263H1639.15c-11.1,0-12.944,3.844-12.944,12.983v45.118c0,9.132,3.8,12.9,12.931,12.9h185.948c9.138,0,13.074-3.774,13.074-12.911v-45.106C1838.159,6364.106,1834.223,6360.263,1825.085,6360.263Z" stroke="none"/>
      <path d="M 1639.150146484375 6363.2626953125 C 1634.659057617188 6363.2626953125 1631.99609375 6363.91259765625 1630.769775390625 6365.3076171875 C 1629.673583984375 6366.5546875 1629.205932617188 6368.9287109375 1629.205932617188 6373.24560546875 L 1629.205932617188 6418.36328125 C 1629.205932617188 6422.13037109375 1629.911987304688 6424.6650390625 1631.364624023438 6426.1123046875 C 1632.817260742188 6427.55908203125 1635.359741210938 6428.2626953125 1639.13720703125 6428.2626953125 L 1825.085327148438 6428.2626953125 C 1828.886962890625 6428.2626953125 1831.458862304688 6427.552734375 1832.948120117188 6426.091796875 C 1834.435913085938 6424.63232421875 1835.1591796875 6422.1005859375 1835.1591796875 6418.3515625 L 1835.1591796875 6373.24560546875 C 1835.1591796875 6369.484375 1834.432983398438 6366.9375 1832.939086914063 6365.4599609375 C 1831.444580078125 6363.9814453125 1828.875610351563 6363.2626953125 1825.085327148438 6363.2626953125 L 1639.150146484375 6363.2626953125 M 1639.150146484375 6360.2626953125 L 1825.085327148438 6360.2626953125 C 1834.223022460938 6360.2626953125 1838.1591796875 6364.1064453125 1838.1591796875 6373.24560546875 L 1838.1591796875 6418.3515625 C 1838.1591796875 6427.48828125 1834.223022460938 6431.2626953125 1825.085327148438 6431.2626953125 L 1639.13720703125 6431.2626953125 C 1630.006103515625 6431.2626953125 1626.205932617188 6427.49560546875 1626.205932617188 6418.36328125 L 1626.205932617188 6373.24560546875 C 1626.205932617188 6364.1064453125 1628.052856445313 6360.2626953125 1639.150146484375 6360.2626953125 Z" stroke="none" fill="#fff"/>
    </g>
    <g id="Group_756" data-name="Group 756" transform="translate(16.201 10.847)">
      <path id="Path_838" data-name="Path 838" d="M1675.185,6396.126a32.828,32.828,0,0,1-2.953,5.514c-1.919,2.918-4.622,6.555-7.97,6.586-2.977.028-3.742-1.937-7.781-1.916s-4.882,1.95-7.859,1.923c-3.35-.031-5.91-3.314-7.828-6.235-5.364-8.162-5.923-17.743-2.616-22.834,2.35-3.622,6.057-5.74,9.544-5.74,3.55,0,5.781,1.948,8.717,1.948,2.847,0,4.581-1.952,8.685-1.952a11.585,11.585,0,0,1,8.732,4.611c-7.674,4.205-6.428,15.166,1.327,18.1" transform="translate(-1636.126 -6362.778)" fill="#fff" fill-rule="evenodd"/>
      <path id="Path_839" data-name="Path 839" d="M1654.735,6374.285a9.973,9.973,0,0,0,2.213-7.38,10.766,10.766,0,0,0-6.949,3.738,9.25,9.25,0,0,0-2.272,7.2,9.1,9.1,0,0,0,7.008-3.558" transform="translate(-1628.848 -6366.905)" fill="#fff" fill-rule="evenodd"/>
    </g>
    <g id="Group_757" data-name="Group 757" transform="translate(66.006 14.86)">
      <path id="Path_840" data-name="Path 840" d="M1669.8,6378.032l-1,3.284h-2.18l3.709-11.577h2.7l3.761,11.577h-2.267l-1.047-3.284Zm3.315-1.6-.911-2.849c-.222-.7-.412-1.494-.583-2.164h-.035c-.171.67-.343,1.475-.55,2.164l-.892,2.849Z" transform="translate(-1666.622 -6369.121)" fill="#fff"/>
      <path id="Path_841" data-name="Path 841" d="M1675.206,6371.707l1.357,4.242c.24.737.412,1.407.567,2.095h.051c.155-.688.344-1.339.567-2.095l1.323-4.242h2.233l-3.195,8.364h-2.078l-3.109-8.364Z" transform="translate(-1662.634 -6367.876)" fill="#fff"/>
      <path id="Path_842" data-name="Path 842" d="M1683.712,6380.143l-.139-.928h-.051a3.105,3.105,0,0,1-2.473,1.117,2.483,2.483,0,0,1-2.628-2.49c0-2.114,1.871-3.177,4.963-3.16v-.136c0-.551-.224-1.46-1.7-1.46a4.448,4.448,0,0,0-2.251.616l-.412-1.372a6.025,6.025,0,0,1,3.023-.738c2.679,0,3.451,1.7,3.451,3.521v3.022a13.265,13.265,0,0,0,.121,2.009Zm-.276-4.087c-1.494-.034-2.919.292-2.919,1.563a1.108,1.108,0,0,0,1.2,1.2,1.71,1.71,0,0,0,1.648-1.149,1.5,1.5,0,0,0,.069-.464Z" transform="translate(-1659.151 -6367.95)" fill="#fff"/>
      <path id="Path_843" data-name="Path 843" d="M1684.122,6369.361h2.13v12.194h-2.13Z" transform="translate(-1655.542 -6369.361)" fill="#fff"/>
      <path id="Path_844" data-name="Path 844" d="M1689.12,6370.722a1.185,1.185,0,1,1-1.186-1.15A1.12,1.12,0,0,1,1689.12,6370.722Zm-2.25,10.7v-8.363H1689v8.363Z" transform="translate(-1653.877 -6369.229)" fill="#fff"/>
      <path id="Path_845" data-name="Path 845" d="M1689.475,6381.555c.034-.567.068-1.495.068-2.353v-9.841h2.112v4.979h.034a3.03,3.03,0,0,1,2.68-1.339c2.043,0,3.5,1.7,3.487,4.243,0,3.007-1.908,4.5-3.8,4.5a2.88,2.88,0,0,1-2.646-1.444h-.034l-.1,1.254Zm2.18-3.453a2.322,2.322,0,0,0,.052.5,1.949,1.949,0,0,0,1.871,1.478c1.323,0,2.13-1.064,2.13-2.748,0-1.476-.7-2.678-2.112-2.678a1.979,1.979,0,0,0-1.873,1.544,2.528,2.528,0,0,0-.068.55Z" transform="translate(-1652.152 -6369.361)" fill="#fff"/>
      <path id="Path_846" data-name="Path 846" d="M1695.669,6369.361h2.13v12.194h-2.13Z" transform="translate(-1648.231 -6369.361)" fill="#fff"/>
      <path id="Path_847" data-name="Path 847" d="M1700.072,6376.553a2.272,2.272,0,0,0,2.575,2.165,6.292,6.292,0,0,0,2.32-.377l.309,1.46a7.922,7.922,0,0,1-2.92.513,3.956,3.956,0,0,1-4.31-4.224c0-2.319,1.408-4.5,4.088-4.5,2.712,0,3.606,2.233,3.606,4.069a5.192,5.192,0,0,1-.069.893Zm3.675-1.476a1.8,1.8,0,0,0-1.734-2.044,2.067,2.067,0,0,0-1.941,2.044Z" transform="translate(-1646.725 -6367.95)" fill="#fff"/>
      <path id="Path_848" data-name="Path 848" d="M1714.133,6375.884a4.143,4.143,0,0,1-4.293,4.448,4.044,4.044,0,0,1-4.191-4.31,4.131,4.131,0,0,1,4.328-4.431A4.013,4.013,0,0,1,1714.133,6375.884Zm-6.3.086c0,1.615.79,2.833,2.077,2.833,1.2,0,2.045-1.185,2.045-2.868,0-1.305-.585-2.8-2.027-2.8C1708.432,6373.136,1707.831,6374.579,1707.831,6375.97Z" transform="translate(-1641.911 -6367.95)" fill="#fff"/>
      <path id="Path_849" data-name="Path 849" d="M1711.933,6374.268c0-.958-.018-1.767-.068-2.487h1.855l.1,1.252h.05a3.019,3.019,0,0,1,2.662-1.442c1.46,0,2.971.943,2.971,3.59v4.962h-2.111v-4.723c0-1.2-.446-2.111-1.6-2.111a1.775,1.775,0,0,0-1.65,1.237,2.141,2.141,0,0,0-.084.685v4.912h-2.13Z" transform="translate(-1637.975 -6367.95)" fill="#fff"/>
      <path id="Path_850" data-name="Path 850" d="M1722.847,6370.244v2.389h2.009v1.578h-2.009v3.693c0,1.014.274,1.546,1.082,1.546a3.03,3.03,0,0,0,.823-.1l.034,1.616a4.626,4.626,0,0,1-1.529.206,2.454,2.454,0,0,1-1.82-.685,3.339,3.339,0,0,1-.653-2.337v-3.934h-1.2v-1.578h1.2v-1.891Z" transform="translate(-1633.089 -6368.802)" fill="#fff"/>
      <path id="Path_851" data-name="Path 851" d="M1723.791,6369.361h2.13v4.979h.034a3.016,3.016,0,0,1,2.491-1.339c1.424,0,2.918.945,2.918,3.624v4.93h-2.112v-4.688c0-1.22-.447-2.13-1.615-2.13a1.727,1.727,0,0,0-1.631,1.185,1.79,1.79,0,0,0-.085.635v5h-2.13Z" transform="translate(-1630.425 -6369.361)" fill="#fff"/>
      <path id="Path_852" data-name="Path 852" d="M1731.507,6376.553a2.273,2.273,0,0,0,2.577,2.165,6.289,6.289,0,0,0,2.318-.377l.31,1.46a7.923,7.923,0,0,1-2.92.513,3.957,3.957,0,0,1-4.312-4.224c0-2.319,1.41-4.5,4.088-4.5,2.714,0,3.608,2.233,3.608,4.069a5.151,5.151,0,0,1-.07.893Zm3.676-1.476a1.8,1.8,0,0,0-1.734-2.044,2.069,2.069,0,0,0-1.942,2.044Z" transform="translate(-1626.823 -6367.95)" fill="#fff"/>
    </g>
  </g>
  <g id="Group_759" data-name="Group 759" transform="translate(63.059 32.044)">
    <path id="Path_853" data-name="Path 853" d="M1749.449,6391.065a7.663,7.663,0,0,0-1.437-4.769,6.018,6.018,0,0,0-5.308-2.6,6.925,6.925,0,0,0-5.667,2.6,9.308,9.308,0,0,0-2.009,6.125,8.249,8.249,0,0,0,2.156,5.944,7.907,7.907,0,0,0,5.928,2.2,13.518,13.518,0,0,0,5.438-1.028l-.572-2.547a11.654,11.654,0,0,1-4.361.684,4.931,4.931,0,0,1-5.112-5.324h10.812A3.384,3.384,0,0,0,1749.449,6391.065Zm-10.942-.344a4.429,4.429,0,0,1,1.062-2.924,3.638,3.638,0,0,1,2.875-1.6,3.266,3.266,0,0,1,2.874,1.633,4.259,4.259,0,0,1,.7,2.89Z" transform="translate(-1620.364 -6377.466)" fill="#fff" fill-rule="evenodd"/>
    <path id="Path_854" data-name="Path 854" d="M1738.757,6387.208c-1.633-.065-1.245-.092-1.641-.092a2.92,2.92,0,0,0-2.647,1.432,5.333,5.333,0,0,0-.611,3.2v8.739h-4.9v-11.347c0-1.858.176-3.351.113-4.983h3.135l.134,3.266h.1a3.9,3.9,0,0,1,1.8-2.7,5.988,5.988,0,0,1,3.114-.935,6.5,6.5,0,0,1,1.4-.011Z" transform="translate(-1624.207 -6377.432)" fill="#fff" fill-rule="evenodd"/>
    <path id="Path_855" data-name="Path 855" d="M1731.784,6386.1a7.369,7.369,0,0,0-5.748-2.368,7.493,7.493,0,0,0-5.879,2.4,8.833,8.833,0,0,0-2.188,6.173,8.571,8.571,0,0,0,2.123,5.961,7.241,7.241,0,0,0,5.7,2.369,7.629,7.629,0,0,0,5.928-2.45,8.9,8.9,0,0,0,2.14-6.158A8.467,8.467,0,0,0,1731.784,6386.1Zm-2.678,9.865a3.56,3.56,0,0,1-3.217,1.976,3.641,3.641,0,0,1-3.266-1.927,7.17,7.17,0,0,1-.98-3.838,7.313,7.313,0,0,1,.98-3.888,3.733,3.733,0,0,1,6.532,0,7.359,7.359,0,0,1,.964,3.839A7.013,7.013,0,0,1,1729.106,6395.962Z" transform="translate(-1631.165 -6377.448)" fill="#fff" fill-rule="evenodd"/>
    <path id="Path_856" data-name="Path 856" d="M1720.757,6387.243h-3.266v8.834c0,2,.661,2.992,2.063,2.992a6.271,6.271,0,0,0,1.578-.157l.091,2.73a8.179,8.179,0,0,1-2.809.4,3.919,3.919,0,0,1-3.159-1.3c-.808-.865-1.031-2.323-1.031-4.371v-9.13h-3.266v-1.632h3.266v-3.085l3.266-1.069v4.154h3.266Z" transform="translate(-1635.604 -6378.887)" fill="#fff" fill-rule="evenodd"/>
    <path id="Path_857" data-name="Path 857" d="M1714.194,6401.07a8.87,8.87,0,0,1-6.128,1.968,10.762,10.762,0,0,1-5.831-1.4l.838-3a10.051,10.051,0,0,0,5.2,1.4,4.946,4.946,0,0,0,3.175-.917,3,3,0,0,0,1.132-2.464,3.148,3.148,0,0,0-.931-2.293,8.812,8.812,0,0,0-3.1-1.734q-5.9-2.2-5.905-6.437a5.677,5.677,0,0,1,2.081-4.542,8.277,8.277,0,0,1,5.525-1.768,11,11,0,0,1,5.108,1.066l-.909,2.938a8.906,8.906,0,0,0-4.317-1.036,4.487,4.487,0,0,0-2.984.93,2.712,2.712,0,0,0-.9,2.042,2.788,2.788,0,0,0,1.034,2.208,11.892,11.892,0,0,0,3.266,1.728,10.957,10.957,0,0,1,4.278,2.74,5.725,5.725,0,0,1,1.368,3.9A6.007,6.007,0,0,1,1714.194,6401.07Z" transform="translate(-1641.126 -6379.882)" fill="#fff" fill-rule="evenodd"/>
    <path id="Path_858" data-name="Path 858" d="M1702.314,6385.946a6.19,6.19,0,0,0-4.785-2.467c-2.45,0-4.263,2.482-5.471,2.482h-.065l-.213-1.633h-3.152c.081,1.633.539,3.478.539,5.21v17.654h3.266v-8.7c0,1.551,2.449,2.3,4.589,2.3a6.51,6.51,0,0,0,4.965-2.124,9.445,9.445,0,0,0,2.254-6.647A9.155,9.155,0,0,0,1702.314,6385.946Zm-2.875,10.452a3.663,3.663,0,0,1-3.168,1.567,3.546,3.546,0,0,1-2.793-1.224,4.288,4.288,0,0,1-1.045-2.99v-2.694a4.376,4.376,0,0,1,.13-1.11,3.962,3.962,0,0,1,1.388-2.319,3.823,3.823,0,0,1,5.553.718,6.668,6.668,0,0,1,1.078,3.9A6.863,6.863,0,0,1,1699.439,6396.4Z" transform="translate(-1649.742 -6377.607)" fill="#fff" fill-rule="evenodd"/>
    <path id="Path_859" data-name="Path 859" d="M1691.41,6385.946a6.189,6.189,0,0,0-4.785-2.467c-2.45,0-4.279,2.482-5.471,2.482h-.066l-.212-1.633h-3.168c.1,1.633.408,3.478.408,5.21v17.654h3.267v-8.7c0,1.551,2.515,2.3,4.671,2.3a6.675,6.675,0,0,0,5.03-2.124,9.447,9.447,0,0,0,2.254-6.647A9.154,9.154,0,0,0,1691.41,6385.946Zm-2.89,10.452a3.712,3.712,0,0,1-3.185,1.567,3.649,3.649,0,0,1-2.842-1.224,4.336,4.336,0,0,1-1.11-2.99v-2.694a6.144,6.144,0,0,1,.2-1.11,4.23,4.23,0,0,1,1.454-2.319,3.777,3.777,0,0,1,2.417-.882,3.7,3.7,0,0,1,3.136,1.6,6.667,6.667,0,0,1,1.061,3.9A6.976,6.976,0,0,1,1688.52,6396.4Z" transform="translate(-1656.656 -6377.607)" fill="#fff" fill-rule="evenodd"/>
    <path id="Path_860" data-name="Path 860" d="M1676.528,6380h-4.475l-7.235,22.864h3.74l2.009-6.533h7.3l2.107,6.533h3.838Zm-5.34,14.7,1.878-6.533c.49-1.878.833-4.9,1.061-4.9h.065c.555,1.634.931,4.295,1.143,4.9l1.894,6.533Z" transform="translate(-1664.818 -6379.811)" fill="#fff" fill-rule="evenodd"/>
  </g>
</svg>
