<svg xmlns="http://www.w3.org/2000/svg" width="25.333" height="24.277" viewBox="0 0 25.333 24.277">
  <g id="Group_1011" data-name="Group 1011" transform="translate(-767.999 -355.999)">
    <path id="Path_1356" data-name="Path 1356" d="M908,637.793v4.9a.791.791,0,0,0,1.429.469l2.863-3.9Zm0,0" transform="translate(-130.766 -263.204)" fill="#f60"/>
    <path id="Path_1357" data-name="Path 1357" d="M793,356.146a.793.793,0,0,0-.825-.057l-23.749,12.4a.792.792,0,0,0,.11,1.451l6.6,2.257L789.2,360.177l-10.88,13.108,11.065,3.782a.805.805,0,0,0,.255.042.791.791,0,0,0,.783-.674l2.9-19.527a.793.793,0,0,0-.324-.762Zm0,0" fill="#f60"/>
  </g>
</svg>
