<svg xmlns="http://www.w3.org/2000/svg" width="23" height="23" viewBox="0 0 23 23">
  <path id="Path_1358" data-name="Path 1358" d="M85.154,79.1a13.058,13.058,0,0,1-4.1-.653,1.874,1.874,0,0,0-1.823.384L76.644,80.78a14.292,14.292,0,0,1-6.426-6.424l1.895-2.519a1.859,1.859,0,0,0,.457-1.884,13.077,13.077,0,0,1-.656-4.108A1.848,1.848,0,0,0,70.069,64H65.846A1.848,1.848,0,0,0,64,65.846,21.178,21.178,0,0,0,85.154,87,1.848,1.848,0,0,0,87,85.154V80.942A1.848,1.848,0,0,0,85.154,79.1Z" transform="translate(-64 -64)" fill="#ff6f00"/>
</svg>
