<svg id="Group_764" data-name="Group 764" xmlns="http://www.w3.org/2000/svg" width="28.257" height="28.257" viewBox="0 0 28.257 28.257">
  <path id="Path_867" data-name="Path 867" d="M1574.367,6579.55h3.121l-.44,4.1h-2.675v6.854h-4.253v-6.841h-2.7c-.006-.094-.015-.165-.015-.236,0-1.214,0-2.426-.005-3.638,0-.205.068-.246.257-.244.729.011,1.458,0,2.186,0h.262c0-.092.012-.165.012-.236,0-.579-.008-1.158,0-1.737a4.361,4.361,0,0,1,3.524-4.3,8.867,8.867,0,0,1,2.946-.061c.271.03.54.072.809.107.1.014.177.033.176.168,0,1.164,0,2.329,0,3.494a.636.636,0,0,1-.017.1l-.26.012c-.769.02-1.539.031-2.306.063a.587.587,0,0,0-.616.673Z" transform="translate(-1559.641 -6566.923)" fill="#fff"/>
  <path id="Path_868" data-name="Path 868" d="M1588.257,6571.461v19.758a1.254,1.254,0,0,0-.049.155,4.983,4.983,0,0,1-3.485,3.918,7.267,7.267,0,0,1-.716.175H1564.25a.939.939,0,0,0-.127-.047,4.972,4.972,0,0,1-3.931-3.434,7.643,7.643,0,0,1-.192-.768v-19.758a1.422,1.422,0,0,0,.049-.156,4.983,4.983,0,0,1,3.484-3.919c.231-.08.477-.118.716-.175h19.757a.851.851,0,0,0,.127.046,4.972,4.972,0,0,1,3.93,3.435A7.257,7.257,0,0,1,1588.257,6571.461Zm-14.114-1.89H1564.9c-.175,0-.35,0-.524.014a2.045,2.045,0,0,0-1.924,1.581,3.881,3.881,0,0,0-.087.9q-.008,9.272,0,18.542c0,.146,0,.293.011.44a2.053,2.053,0,0,0,1.732,2,4.035,4.035,0,0,0,.768.059q9.257,0,18.514,0c.166,0,.331,0,.5-.013a2.048,2.048,0,0,0,1.952-1.716,4.184,4.184,0,0,0,.061-.795q0-9.244,0-18.487c0-.173,0-.348-.015-.522a2.04,2.04,0,0,0-1.568-1.908,3.655,3.655,0,0,0-.873-.091Q1578.791,6569.567,1574.143,6569.571Z" transform="translate(-1560 -6567.211)" fill="#fff"/>
</svg>
