<svg id="Group_762" data-name="Group 762" xmlns="http://www.w3.org/2000/svg" width="40.706" height="28.256" viewBox="0 0 40.706 28.256">
  <path id="Path_861" data-name="Path 861" d="M1630.57,6595.468c-3.965-.1-7.931-.188-11.894-.32a29.6,29.6,0,0,1-3.267-.323,4.892,4.892,0,0,1-4.394-4.025,26.9,26.9,0,0,1-.56-3.742,70.979,70.979,0,0,1-.1-10.038,23.809,23.809,0,0,1,.706-5.4,5.19,5.19,0,0,1,5.186-4.024c3.636-.172,7.277-.335,10.917-.372,4.366-.042,8.733.028,13.1.1,1.7.026,3.392.147,5.083.277a5.211,5.211,0,0,1,4.907,4.185,20.1,20.1,0,0,1,.622,5.085q.105,4.394,0,8.792a20.994,20.994,0,0,1-.682,5.308,5.234,5.234,0,0,1-5.144,4.021c-2.418.135-4.838.28-7.259.338-2.406.057-4.814.012-7.222.012Zm-.221-2.461c3.642-.085,7.1-.15,10.555-.253,1.418-.042,2.835-.147,4.25-.254a2.621,2.621,0,0,0,2.677-2.184,23.385,23.385,0,0,0,.561-3.738,77.219,77.219,0,0,0,.009-10.641,13.562,13.562,0,0,0-.729-4.266,2.537,2.537,0,0,0-1.9-1.592,6.726,6.726,0,0,0-1.329-.168c-4.782-.127-9.563-.307-14.346-.337-3.671-.024-7.344.131-11.016.236a33.139,33.139,0,0,0-3.458.274,2.464,2.464,0,0,0-2.068,1.631,13.392,13.392,0,0,0-.715,4.13,80.006,80.006,0,0,0,0,10.872,13.658,13.658,0,0,0,.688,4.042,2.285,2.285,0,0,0,1.8,1.549,20.4,20.4,0,0,0,2.933.359C1622.355,6592.808,1626.444,6592.9,1630.349,6593.007Z" transform="translate(-1610.227 -6567.212)" fill="#fff"/>
  <path id="Path_862" data-name="Path 862" d="M1636.539,6580.913l-10.3,6.033v-12.064Z" transform="translate(-1609.449 -6566.839)" fill="#fff"/>
</svg>
