<svg xmlns="http://www.w3.org/2000/svg" width="37.512" height="28.256" viewBox="0 0 37.512 28.256">
  <path id="Path_863" data-name="Path 863" d="M1707.786,6567.211l-.669,3.726,2.05-.945c-.049.168-.077.28-.115.387-.426,1.216-.861,2.429-1.278,3.646a7.208,7.208,0,0,1-2.205,2.943,1.8,1.8,0,0,0-.619,1.294c-.509,5.251-2.468,9.8-6.612,13.233a17.2,17.2,0,0,1-8.473,3.725,17.479,17.479,0,0,1-12.628-2.6c-1.93-1.255-3.736-2.7-5.582-4.128l1.255.1c2.125.165,4.25.36,6.378.475a21.351,21.351,0,0,0,2.547-.156,1.368,1.368,0,0,0-.138-.227,8.174,8.174,0,0,1-2.545-4.48,2.01,2.01,0,0,0-.322-.693,7.754,7.754,0,0,1-1.457-4.492c-.011-1.436.022-2.874.047-4.31a6.891,6.891,0,0,1,.927-3.369c.47-.815.994-1.6,1.525-2.444.114.125.2.219.288.313,1.027,1.11,1.988,2.29,3.1,3.311a13.758,13.758,0,0,0,6.363,3.222,2.037,2.037,0,0,0,.227.026c.051-.236.1-.473.154-.708a7.891,7.891,0,0,1,6.616-5.975,7.284,7.284,0,0,1,5.125,1.385.632.632,0,0,0,.708.1,17.036,17.036,0,0,0,1.818-.911c1.072-.693,2.1-1.455,3.144-2.188C1707.509,6567.4,1707.61,6567.333,1707.786,6567.211Zm-21.265,21.341c-2.352,2.079-5.2,2.543-8.311,2.427.2.13.3.2.407.263a15.944,15.944,0,0,0,11.634,1.961,14.969,14.969,0,0,0,7.71-3.929,17.224,17.224,0,0,0,5.139-12.334.736.736,0,0,1,.277-.6c.541-.471,1.081-.95,1.583-1.462a13.267,13.267,0,0,0,.888-1.106l-.073-.082a9.332,9.332,0,0,1-3.067.844,5.559,5.559,0,0,0,2.364-3.088,10.973,10.973,0,0,1-3.109,1.241.671.671,0,0,1-.722-.181,5.449,5.449,0,0,0-4.577-1.507,5.946,5.946,0,0,0-4.921,6.372c.018.167.035.332.059.566a16.516,16.516,0,0,1-11.7-5.835,5.69,5.69,0,0,0-.737,3.419,6.229,6.229,0,0,0,2.348,4.039,5.088,5.088,0,0,1-1.237-.128,11.44,11.44,0,0,1-1.2-.472,5.722,5.722,0,0,0,4.492,5.6,3.842,3.842,0,0,1-2.5-.033C1681.754,6586.777,1683.683,6588.229,1686.52,6588.552Z" transform="translate(-1671.655 -6567.211)" fill="#fff"/>
</svg>
