<svg id="Group_763" data-name="Group 763" xmlns="http://www.w3.org/2000/svg" width="28.253" height="28.256" viewBox="0 0 28.253 28.256">
  <path id="Path_864" data-name="Path 864" d="M1745.226,6568.081c1.778,0,3.557,0,5.334,0a8.67,8.67,0,0,1,8.784,8.729q.011,5.39,0,10.776a8.636,8.636,0,0,1-6.915,8.552,8.8,8.8,0,0,1-1.787.184q-5.423.023-10.849.006a8.657,8.657,0,0,1-8.6-7.418,9.092,9.092,0,0,1-.091-1.363q-.011-5.334,0-10.668a8.656,8.656,0,0,1,7.392-8.7,9.31,9.31,0,0,1,1.4-.1C1741.67,6568.076,1743.448,6568.081,1745.226,6568.081Zm11.828,14.137c0-1.813,0-3.629,0-5.443a6.346,6.346,0,0,0-6.41-6.4q-5.425-.008-10.85,0a6.343,6.343,0,0,0-6.4,6.409q-.008,5.426,0,10.85a6.345,6.345,0,0,0,6.409,6.4q5.425.007,10.85,0a6.346,6.346,0,0,0,6.4-6.411C1757.057,6585.822,1757.054,6584.02,1757.054,6582.218Z" transform="translate(-1731.098 -6568.08)" fill="#fff"/>
  <path id="Path_865" data-name="Path 865" d="M1744.97,6589.324a7.392,7.392,0,1,1,7.428-7.332A7.379,7.379,0,0,1,1744.97,6589.324Zm.022-2.291a5.1,5.1,0,1,0-5.114-5.1A5.109,5.109,0,0,0,1744.992,6587.033Z" transform="translate(-1730.781 -6567.764)" fill="#fff"/>
  <path id="Path_866" data-name="Path 866" d="M1753.471,6574.389a1.636,1.636,0,1,1-1.659-1.633A1.654,1.654,0,0,1,1753.471,6574.389Z" transform="translate(-1730.169 -6567.851)" fill="#fff"/>
</svg>
