<svg xmlns="http://www.w3.org/2000/svg" width="19.891" height="23.949" viewBox="0 0 19.891 23.949">
  <path id="Path_1109" data-name="Path 1109" d="M22.639,8.076H6.614l5.038-5.048a1.324,1.324,0,0,0,0-1.86L10.868.383a1.311,1.311,0,0,0-1.851,0L.382,9.017a1.32,1.32,0,0,0,0,1.857l8.636,8.636a1.313,1.313,0,0,0,1.851,0l.784-.784a1.3,1.3,0,0,0,.382-.925,1.259,1.259,0,0,0-.382-.908L6.557,11.815H22.62a1.357,1.357,0,0,0,1.328-1.344V9.363a1.331,1.331,0,0,0-1.347-1.3" transform="translate(19.891) rotate(90)" fill="#fff"/>
</svg>
