<svg xmlns="http://www.w3.org/2000/svg" width="23.492" height="28.894" viewBox="0 0 23.492 28.894">
  <g id="Group_63" data-name="Group 63" transform="translate(-1109.9 -433.744)">
    <path id="Path_175" data-name="Path 175" d="M1125.084,442.848a8.235,8.235,0,0,0-2.6.422v-1.382a.961.961,0,0,1,.96-.96h2.7a6.25,6.25,0,0,0,6.243-6.243.841.841,0,0,0-.841-.841h-4.5a6.254,6.254,0,0,0-5.988,4.474c-.031-.033-.062-.066-.094-.1l-1.428-1.428a.841.841,0,0,0-1.189,1.189l1.428,1.428a3.484,3.484,0,0,1,1.027,2.479v1.382A8.208,8.208,0,0,0,1110,451.056a14.429,14.429,0,0,0,2.6,7.311c1.765,2.651,3.81,4.171,5.611,4.171a4.807,4.807,0,0,0,2.86-1.121.964.964,0,0,1,1.153,0,4.805,4.805,0,0,0,2.862,1.123c1.8,0,3.847-1.52,5.611-4.171a14.428,14.428,0,0,0,2.6-7.311,8.217,8.217,0,0,0-8.208-8.208Zm1.965-7.323h3.584a4.57,4.57,0,0,1-4.484,3.721h-2.7a2.628,2.628,0,0,0-.91.161,4.569,4.569,0,0,1,4.512-3.883Zm2.247,21.911c-1.4,2.11-3.018,3.421-4.212,3.421a3.26,3.26,0,0,1-1.849-.783,2.655,2.655,0,0,0-3.179,0,3.258,3.258,0,0,1-1.847.781c-1.193,0-2.807-1.311-4.212-3.421a12.9,12.9,0,0,1-2.315-6.38,6.528,6.528,0,0,1,9.571-5.774.84.84,0,0,0,.786,0,6.527,6.527,0,0,1,9.571,5.774,12.89,12.89,0,0,1-2.315,6.38Zm0,0" fill="#5f5fff" stroke="#5f5fff" stroke-width="0.2"/>
    <path id="Path_176" data-name="Path 176" d="M1152.749,567.905a4.443,4.443,0,0,0-4.441,4.442.841.841,0,1,0,1.681,0,2.761,2.761,0,0,1,2.76-2.76h0a.841.841,0,0,0,0-1.681Zm0,0" transform="translate(-34.705 -121.455)" fill="#5f5fff" stroke="#5f5fff" stroke-width="0.2"/>
  </g>
</svg>
