<svg xmlns="http://www.w3.org/2000/svg" width="39.62" height="28.694" viewBox="0 0 39.62 28.694">
  <g id="Group_1014" data-name="Group 1014" transform="translate(531.182 -352.028)">
    <path id="Path_1368" data-name="Path 1368" d="M-381.479,452.479a6.175,6.175,0,0,1,6.348-5.967,6.177,6.177,0,0,1,6.014,6.367,6.174,6.174,0,0,1-6.382,6A6.173,6.173,0,0,1-381.479,452.479Zm6.153,3.889a3.685,3.685,0,0,0,3.7-3.614,3.693,3.693,0,0,0-3.646-3.734,3.69,3.69,0,0,0-3.7,3.68A3.69,3.69,0,0,0-375.326,456.368Z" transform="translate(-136.136 -86.334)" fill="#f8173d"/>
    <path id="Path_1369" data-name="Path 1369" d="M-487.678,396.885a19.871,19.871,0,0,1,5.626-13.495c.628-.653,1.274-.726,1.833-.218a1.3,1.3,0,0,1-.032,1.968A16.667,16.667,0,0,0-485,394.8a17,17,0,0,0,4.572,14.3,2.392,2.392,0,0,1,.592.877,1.131,1.131,0,0,1-.548,1.368,1.225,1.225,0,0,1-1.561-.267,19.56,19.56,0,0,1-3.365-4.541A19.767,19.767,0,0,1-487.678,396.885Z" transform="translate(-43.503 -30.797)" fill="#f8173d"/>
    <path id="Path_1370" data-name="Path 1370" d="M-232.127,397.557a20.5,20.5,0,0,1-5.83,13.348,1.23,1.23,0,0,1-1.555.317,1.132,1.132,0,0,1-.587-1.352,2.261,2.261,0,0,1,.568-.892A16.811,16.811,0,0,0-235,399.824a16.947,16.947,0,0,0-4.232-14.34c-.182-.208-.385-.4-.563-.609a1.264,1.264,0,0,1,.062-1.823,1.229,1.229,0,0,1,1.765.113,18.986,18.986,0,0,1,5.209,9.607C-232.429,394.343-232.329,395.961-232.127,397.557Z" transform="translate(-259.435 -30.702)" fill="#f8173d"/>
    <path id="Path_1371" data-name="Path 1371" d="M-268.265,426.906a14.059,14.059,0,0,1-4.016,9.55,1.227,1.227,0,0,1-1.765.134,1.173,1.173,0,0,1-.057-1.8,11.136,11.136,0,0,0,3.031-5.709,10.866,10.866,0,0,0-2.608-9.529c-.153-.177-.32-.342-.464-.526a1.271,1.271,0,0,1,.074-1.731,1.242,1.242,0,0,1,1.771.1,13.035,13.035,0,0,1,3.462,6.066C-268.564,424.59-268.45,425.756-268.265,426.906Z" transform="translate(-229.472 -60.572)" fill="#f8173d"/>
    <path id="Path_1372" data-name="Path 1372" d="M-439.534,427.46a13.846,13.846,0,0,1,3.867-9.981,1.262,1.262,0,0,1,1.861-.141,1.181,1.181,0,0,1-.032,1.8,11.043,11.043,0,0,0-3,5.723,10.876,10.876,0,0,0,2.58,9.42c.166.194.351.372.508.572a1.26,1.26,0,0,1-.124,1.773,1.212,1.212,0,0,1-1.716-.133,13.266,13.266,0,0,1-3.592-6.557C-439.394,428.967-439.465,427.966-439.534,427.46Z" transform="translate(-85.502 -60.59)" fill="#f8173d"/>
  </g>
</svg>
