<svg xmlns="http://www.w3.org/2000/svg" width="20.857" height="25" viewBox="0 0 20.857 25">
  <g id="Group_1012" data-name="Group 1012" transform="translate(-789 -335)">
    <path id="Path_1359" data-name="Path 1359" d="M864.646,347.042a6.022,6.022,0,1,0-4.257-1.764,5.826,5.826,0,0,0,4.257,1.764Zm-3.221-9.243a4.554,4.554,0,1,1-1.335,3.221,4.353,4.353,0,0,1,1.335-3.221Zm0,0" transform="translate(-65.375)" fill="#383841"/>
    <path id="Path_1360" data-name="Path 1360" d="M809.807,540a14.915,14.915,0,0,0-.2-1.58,12.435,12.435,0,0,0-.388-1.588,7.86,7.86,0,0,0-.653-1.481,5.578,5.578,0,0,0-.984-1.283,4.342,4.342,0,0,0-1.414-.889,4.886,4.886,0,0,0-1.806-.327,1.832,1.832,0,0,0-.979.415c-.293.191-.637.412-1.019.657a5.844,5.844,0,0,1-1.319.581,5.119,5.119,0,0,1-3.227,0,5.821,5.821,0,0,1-1.318-.581c-.379-.243-.723-.464-1.02-.658a1.833,1.833,0,0,0-.978-.415,4.881,4.881,0,0,0-1.805.327,4.337,4.337,0,0,0-1.415.889,5.588,5.588,0,0,0-.984,1.283,7.861,7.861,0,0,0-.653,1.482,12.411,12.411,0,0,0-.388,1.588,14.771,14.771,0,0,0-.2,1.58c-.033.477-.05.974-.05,1.476a4.151,4.151,0,0,0,1.233,3.141,4.439,4.439,0,0,0,3.177,1.159h12.038a4.439,4.439,0,0,0,3.177-1.159,4.15,4.15,0,0,0,1.233-3.141c0-.5-.017-1-.051-1.477Zm-2.193,3.556a2.988,2.988,0,0,1-2.167.755H793.41a2.987,2.987,0,0,1-2.167-.755,2.71,2.71,0,0,1-.778-2.079c0-.469.015-.931.046-1.375a13.305,13.305,0,0,1,.183-1.423,10.977,10.977,0,0,1,.342-1.4,6.387,6.387,0,0,1,.531-1.2,4.138,4.138,0,0,1,.724-.948,2.875,2.875,0,0,1,.941-.585,3.37,3.37,0,0,1,1.154-.222c.052.027.143.079.291.176.3.2.648.42,1.032.665a7.277,7.277,0,0,0,1.656.74,6.586,6.586,0,0,0,4.128,0,7.273,7.273,0,0,0,1.657-.741c.393-.251.73-.468,1.031-.665.148-.1.239-.149.291-.176a3.371,3.371,0,0,1,1.154.222,2.884,2.884,0,0,1,.941.585,4.129,4.129,0,0,1,.723.948,6.387,6.387,0,0,1,.532,1.2,10.991,10.991,0,0,1,.342,1.4,13.4,13.4,0,0,1,.183,1.423h0c.031.442.047.9.047,1.374a2.711,2.711,0,0,1-.778,2.079Zm0,0" transform="translate(0 -185.776)" fill="#383841"/>
  </g>
</svg>
