<svg xmlns="http://www.w3.org/2000/svg" width="21.23" height="26.893" viewBox="0 0 21.23 26.893">
  <path id="Path_1253" data-name="Path 1253" d="M913.539,227.746c0-3.882.006-7.765-.008-11.647a1.614,1.614,0,0,1,.8-1.648,1.755,1.755,0,0,1,1.905.213q7.891,5.29,15.786,10.571c.541.362,1.089.715,1.635,1.069a2.4,2.4,0,0,1-.036,4.046q-8.556,5.147-17.119,10.284c-.171.1-.345.2-.519.3a1.634,1.634,0,0,1-2.466-1.468C913.587,235.563,913.539,231.654,913.539,227.746Z" transform="translate(-913.516 -214.257)" fill="#f60" opacity="0.57"/>
</svg>
