<svg xmlns="http://www.w3.org/2000/svg" width="77" height="77" viewBox="0 0 77 77">
  <g id="Group_71" data-name="Group 71" transform="translate(-495 -1972)">
    <path id="Path_117" data-name="Path 117" d="M971,234.093v4.813a5.391,5.391,0,0,0-.129.658,34.756,34.756,0,0,1-2.432,10.717c-5.482,13.276-15.266,21.361-29.383,24.14-1.369.27-2.766.391-4.149.581h-4.812c-.192-.043-.383-.1-.578-.125-1.782-.263-3.582-.43-5.341-.795a38.52,38.52,0,0,1-29.582-30.872c-.232-1.428-.4-2.868-.594-4.3v-4.812c.043-.217.1-.434.129-.655.26-1.756.428-3.53.789-5.265a38.513,38.513,0,0,1,30.874-29.579c1.429-.233,2.868-.4,4.3-.594h4.813c.193.042.384.092.579.125,2.194.36,4.426.568,6.577,1.1a38.434,38.434,0,0,1,28.351,30.64C970.646,231.269,970.806,232.684,971,234.093Zm-8.422,2.4A30.078,30.078,0,1,0,932.5,266.578,30.1,30.1,0,0,0,962.578,236.5Z" transform="translate(-399 1774)" fill="#fff" opacity="0.7"/>
    <path id="Path_118" data-name="Path 118" d="M913.539,227.746c0-3.882.006-7.765-.008-11.647a1.614,1.614,0,0,1,.8-1.648,1.755,1.755,0,0,1,1.905.213q7.891,5.29,15.786,10.571c.541.362,1.089.715,1.635,1.069a2.4,2.4,0,0,1-.036,4.046q-8.556,5.147-17.119,10.284c-.171.1-.345.2-.519.3a1.634,1.634,0,0,1-2.466-1.468C913.587,235.563,913.539,231.654,913.539,227.746Z" transform="translate(-388.461 1782.779)" fill="#fff"/>
  </g>
</svg>
